<?xml version="1.0" encoding="UTF-8" standalone="no"?><svg xmlns="http://www.w3.org/2000/svg" xmlns:xlink="http://www.w3.org/1999/xlink" contentStyleType="text/css" height="97px" preserveAspectRatio="none" style="width:473px;height:97px;background:#FFFFFF;" version="1.1" viewBox="0 0 473 97" width="473px" zoomAndPan="magnify"><defs/><g><!--MD5=[770389ab9df153645bc6ef28055eb2b5]
entity A--><g id="elem_A"><rect fill="#F1F1F1" height="46.4883" rx="2.5" ry="2.5" style="stroke:#181818;stroke-width:0.5;" width="162" x="7" y="45"/><rect fill="#F1F1F1" height="10" style="stroke:#181818;stroke-width:0.5;" width="15" x="149" y="50"/><rect fill="#F1F1F1" height="2" style="stroke:#181818;stroke-width:0.5;" width="4" x="147" y="52"/><rect fill="#F1F1F1" height="2" style="stroke:#181818;stroke-width:0.5;" width="4" x="147" y="56"/><text fill="#000000" font-family="sans-serif" font-size="14" lengthAdjust="spacing" textLength="122" x="22" y="78.5352">Target function f*</text></g><!--MD5=[b2d39259b6aeabc16b394deeb0238426]
entity B--><g id="elem_B"><rect fill="#F1F1F1" height="46.4883" rx="2.5" ry="2.5" style="stroke:#181818;stroke-width:0.5;" width="107" x="360" y="45"/><rect fill="#F1F1F1" height="10" style="stroke:#181818;stroke-width:0.5;" width="15" x="447" y="50"/><rect fill="#F1F1F1" height="2" style="stroke:#181818;stroke-width:0.5;" width="4" x="445" y="52"/><rect fill="#F1F1F1" height="2" style="stroke:#181818;stroke-width:0.5;" width="4" x="445" y="56"/><text fill="#000000" font-family="sans-serif" font-size="14" lengthAdjust="spacing" textLength="67" x="375" y="78.5352">Model f_θ</text></g><!--MD5=[16fab723be418f7eaf2ea4bd895a8e51]
entity C--><g id="elem_C"><rect fill="#F1F1F1" height="46.4883" rx="2.5" ry="2.5" style="stroke:#181818;stroke-width:0.5;" width="71" x="229" y="7"/><rect fill="#F1F1F1" height="10" style="stroke:#181818;stroke-width:0.5;" width="15" x="280" y="12"/><rect fill="#F1F1F1" height="2" style="stroke:#181818;stroke-width:0.5;" width="4" x="278" y="14"/><rect fill="#F1F1F1" height="2" style="stroke:#181818;stroke-width:0.5;" width="4" x="278" y="18"/><text fill="#000000" font-family="sans-serif" font-size="14" lengthAdjust="spacing" textLength="31" x="244" y="40.5352">Data</text></g><!--MD5=[5e2eec62a50b26b6b0db6c12e4ee289c]
link A to B--><g id="link_A_B"><path d="M174.28,69.52 C212.7,70.02 258.63,70.37 300,70 C317.7,69.84 336.97,69.55 354.48,69.23 " fill="none" id="A-B" style="stroke:#181818;stroke-width:1.0;"/><polygon fill="#181818" points="359.85,69.13,350.7828,65.2849,354.8507,69.2157,350.9199,73.2837,359.85,69.13" style="stroke:#181818;stroke-width:1.0;"/><polygon fill="#181818" points="169.16,69.45,178.1019,73.5782,174.1595,69.5214,178.2162,65.579,169.16,69.45" style="stroke:#181818;stroke-width:1.0;"/></g><!--MD5=[e1650921a81fac0037ec207a42ac4e7e]
link A to C--><g id="link_A_C"><path d="M174.02,49.49 C191.43,45.69 208.96,41.88 223.84,38.64 " fill="none" id="A-C" style="stroke:#181818;stroke-width:1.0;"/><polygon fill="#181818" points="228.77,37.56,219.1276,35.5538,223.8831,38.6174,220.8195,43.3729,228.77,37.56" style="stroke:#181818;stroke-width:1.0;"/><polygon fill="#181818" points="169.1,50.56,178.7479,52.5393,173.9839,49.489,177.0343,44.725,169.1,50.56" style="stroke:#181818;stroke-width:1.0;"/></g><!--MD5=[a9a08eed061a1d2941776fe900dc520e]
link C to B--><g id="link_C_B"><path d="M305.43,40.32 C320.61,44.25 338.21,48.8 354.71,53.06 " fill="none" id="C-B" style="stroke:#181818;stroke-width:1.0;"/><polygon fill="#181818" points="359.79,54.37,352.0838,48.237,354.9504,53.1137,350.0737,55.9803,359.79,54.37" style="stroke:#181818;stroke-width:1.0;"/><polygon fill="#181818" points="300.34,39.01,308.0462,45.143,305.1796,40.2663,310.0563,37.3997,300.34,39.01" style="stroke:#181818;stroke-width:1.0;"/></g><!--MD5=[a240e5fb36e6b991bf14872f769a3580]
@startuml
left to right direction
[Target function f*] as A
[Model f_θ]  as B
[Data] as C
A <- - -> B
A <-> C
C <-> B
@enduml

PlantUML version 1.2022.5(Sat Apr 30 18:55:52 CST 2022)
(GPL source distribution)
Java Runtime: Java(TM) SE Runtime Environment
JVM: Java HotSpot(TM) 64-Bit Server VM
Default Encoding: UTF-8
Language: zh
Country: CN
--></g></svg>