<svg width="3653" height="2012" xmlns="http://www.w3.org/2000/svg" xmlns:xlink="http://www.w3.org/1999/xlink" xml:space="preserve" overflow="hidden"><g transform="translate(-508 -220)"><g><path d="M512.5 1357C512.5 875.131 1268.24 484.5 2200.5 484.5 3132.76 484.5 3888.5 875.131 3888.5 1357 3888.5 1838.87 3132.76 2229.5 2200.5 2229.5 1268.24 2229.5 512.5 1838.87 512.5 1357Z" stroke="#9DC3E6" stroke-width="4.58333" stroke-linecap="butt" stroke-linejoin="miter" stroke-miterlimit="8" stroke-opacity="1" fill="#9DC3E6" fill-rule="evenodd" fill-opacity="1"/><text fill="#000000" fill-opacity="1" font-family="Cambria Math,Cambria Math_MSFontService,sans-serif" font-style="normal" font-variant="normal" font-weight="400" font-stretch="normal" font-size="92" text-anchor="start" direction="ltr" writing-mode="lr-tb" unicode-bidi="normal" text-decoration="none" transform="matrix(1 0 0 1 3610.18 325)">arg</text><text fill="#000000" fill-opacity="1" font-family="Cambria Math,Cambria Math_MSFontService,sans-serif" font-style="normal" font-variant="normal" font-weight="400" font-stretch="normal" font-size="92" text-anchor="start" direction="ltr" writing-mode="lr-tb" unicode-bidi="normal" text-decoration="none" transform="matrix(1 0 0 1 3737.37 325)">inf</text><text fill="#000000" fill-opacity="1" font-family="Cambria Math,Cambria Math_MSFontService,sans-serif" font-style="normal" font-variant="normal" font-weight="400" font-stretch="normal" font-size="67" text-anchor="start" direction="ltr" writing-mode="lr-tb" unicode-bidi="normal" text-decoration="none" transform="matrix(1 0 0 1 3703.86 401)">â„</text><text fill="#000000" fill-opacity="1" font-family="Cambria Math,Cambria Math_MSFontService,sans-serif" font-style="normal" font-variant="normal" font-weight="400" font-stretch="normal" font-size="92" text-anchor="start" direction="ltr" writing-mode="lr-tb" unicode-bidi="normal" text-decoration="none" transform="matrix(1 0 0 1 3856.35 325)">ğ¿</text><text fill="#000000" fill-opacity="1" font-family="Cambria Math,Cambria Math_MSFontService,sans-serif" font-style="normal" font-variant="normal" font-weight="400" font-stretch="normal" font-size="92" text-anchor="start" direction="ltr" writing-mode="lr-tb" unicode-bidi="normal" text-decoration="none" transform="matrix(1 0 0 1 3906.93 325)">(</text><text fill="#000000" fill-opacity="1" font-family="Cambria Math,Cambria Math_MSFontService,sans-serif" font-style="normal" font-variant="normal" font-weight="400" font-stretch="normal" font-size="92" text-anchor="start" direction="ltr" writing-mode="lr-tb" unicode-bidi="normal" text-decoration="none" transform="matrix(1 0 0 1 3944.74 325)">â„</text><text fill="#000000" fill-opacity="1" font-family="Cambria Math,Cambria Math_MSFontService,sans-serif" font-style="normal" font-variant="normal" font-weight="400" font-stretch="normal" font-size="92" text-anchor="start" direction="ltr" writing-mode="lr-tb" unicode-bidi="normal" text-decoration="none" transform="matrix(1 0 0 1 3997.29 325)">)</text><path d="M3799.5 418C3799.5 400.051 3814.05 385.5 3832 385.5 3849.95 385.5 3864.5 400.051 3864.5 418 3864.5 435.949 3849.95 450.5 3832 450.5 3814.05 450.5 3799.5 435.949 3799.5 418Z" stroke="#FF2600" stroke-width="4.58333" stroke-linecap="butt" stroke-linejoin="miter" stroke-miterlimit="8" stroke-opacity="1" fill="#FF2600" fill-rule="evenodd" fill-opacity="1"/><path d="M3517.5 826C3517.5 808.051 3532.05 793.5 3550 793.5 3567.95 793.5 3582.5 808.051 3582.5 826 3582.5 843.949 3567.95 858.5 3550 858.5 3532.05 858.5 3517.5 843.949 3517.5 826Z" stroke="#8EFA00" stroke-width="4.58333" stroke-linecap="butt" stroke-linejoin="miter" stroke-miterlimit="8" stroke-opacity="1" fill="#8EFA00" fill-rule="evenodd" fill-opacity="1"/><path d="M2709.5 1437C2709.5 1419.05 2724.05 1404.5 2742 1404.5 2759.95 1404.5 2774.5 1419.05 2774.5 1437 2774.5 1454.95 2759.95 1469.5 2742 1469.5 2724.05 1469.5 2709.5 1454.95 2709.5 1437Z" stroke="#9437FF" stroke-width="4.58333" stroke-linecap="butt" stroke-linejoin="miter" stroke-miterlimit="8" stroke-opacity="1" fill="#9437FF" fill-rule="evenodd" fill-opacity="1"/><path d="M1963.5 1613C1963.5 1595.05 1978.05 1580.5 1996 1580.5 2013.95 1580.5 2028.5 1595.05 2028.5 1613 2028.5 1630.95 2013.95 1645.5 1996 1645.5 1978.05 1645.5 1963.5 1630.95 1963.5 1613Z" stroke="#0432FF" stroke-width="4.58333" stroke-linecap="butt" stroke-linejoin="miter" stroke-miterlimit="8" stroke-opacity="1" fill="#0432FF" fill-rule="evenodd" fill-opacity="1"/><text fill="#000000" fill-opacity="1" font-family="Cambria Math,Cambria Math_MSFontService,sans-serif" font-style="normal" font-variant="normal" font-weight="400" font-stretch="normal" font-size="92" text-anchor="start" direction="ltr" writing-mode="lr-tb" unicode-bidi="normal" text-decoration="none" transform="matrix(1 0 0 1 3064.29 858)">arg</text><text fill="#000000" fill-opacity="1" font-family="Cambria Math,Cambria Math_MSFontService,sans-serif" font-style="normal" font-variant="normal" font-weight="400" font-stretch="normal" font-size="92" text-anchor="start" direction="ltr" writing-mode="lr-tb" unicode-bidi="normal" text-decoration="none" transform="matrix(1 0 0 1 3191.48 858)">inf</text><text fill="#000000" fill-opacity="1" font-family="Cambria Math,Cambria Math_MSFontService,sans-serif" font-style="normal" font-variant="normal" font-weight="400" font-stretch="normal" font-size="67" text-anchor="start" direction="ltr" writing-mode="lr-tb" unicode-bidi="normal" text-decoration="none" transform="matrix(1 0 0 1 3110.95 934)">â„</text><text fill="#000000" fill-opacity="1" font-family="Cambria Math,Cambria Math_MSFontService,sans-serif" font-style="normal" font-variant="normal" font-weight="400" font-stretch="normal" font-size="67" text-anchor="start" direction="ltr" writing-mode="lr-tb" unicode-bidi="normal" text-decoration="none" transform="matrix(1 0 0 1 3154.47 934)">âˆˆ</text><text fill="#000000" fill-opacity="1" font-family="Cambria Math,Cambria Math_MSFontService,sans-serif" font-style="normal" font-variant="normal" font-weight="400" font-stretch="normal" font-size="67" text-anchor="start" direction="ltr" writing-mode="lr-tb" unicode-bidi="normal" text-decoration="none" transform="matrix(1 0 0 1 3196.29 934)">ğ»</text><text fill="#000000" fill-opacity="1" font-family="Cambria Math,Cambria Math_MSFontService,sans-serif" font-style="normal" font-variant="normal" font-weight="400" font-stretch="normal" font-size="92" text-anchor="start" direction="ltr" writing-mode="lr-tb" unicode-bidi="normal" text-decoration="none" transform="matrix(1 0 0 1 3310.46 858)">ğ¿</text><text fill="#000000" fill-opacity="1" font-family="Cambria Math,Cambria Math_MSFontService,sans-serif" font-style="normal" font-variant="normal" font-weight="400" font-stretch="normal" font-size="92" text-anchor="start" direction="ltr" writing-mode="lr-tb" unicode-bidi="normal" text-decoration="none" transform="matrix(1 0 0 1 3361.04 858)">(</text><text fill="#000000" fill-opacity="1" font-family="Cambria Math,Cambria Math_MSFontService,sans-serif" font-style="normal" font-variant="normal" font-weight="400" font-stretch="normal" font-size="92" text-anchor="start" direction="ltr" writing-mode="lr-tb" unicode-bidi="normal" text-decoration="none" transform="matrix(1 0 0 1 3398.85 858)">â„</text><text fill="#000000" fill-opacity="1" font-family="Cambria Math,Cambria Math_MSFontService,sans-serif" font-style="normal" font-variant="normal" font-weight="400" font-stretch="normal" font-size="92" text-anchor="start" direction="ltr" writing-mode="lr-tb" unicode-bidi="normal" text-decoration="none" transform="matrix(1 0 0 1 3451.4 858)">)</text><text fill="#000000" fill-opacity="1" font-family="Cambria Math,Cambria Math_MSFontService,sans-serif" font-style="normal" font-variant="normal" font-weight="400" font-stretch="normal" font-size="92" text-anchor="start" direction="ltr" writing-mode="lr-tb" unicode-bidi="normal" text-decoration="none" transform="matrix(1 0 0 1 2632.44 1656)">arginf</text><text fill="#000000" fill-opacity="1" font-family="Cambria Math,Cambria Math_MSFontService,sans-serif" font-style="normal" font-variant="normal" font-weight="400" font-stretch="normal" font-size="67" text-anchor="start" direction="ltr" writing-mode="lr-tb" unicode-bidi="normal" text-decoration="none" transform="matrix(1 0 0 1 2679.1 1731)">â„</text><text fill="#000000" fill-opacity="1" font-family="Cambria Math,Cambria Math_MSFontService,sans-serif" font-style="normal" font-variant="normal" font-weight="400" font-stretch="normal" font-size="67" text-anchor="start" direction="ltr" writing-mode="lr-tb" unicode-bidi="normal" text-decoration="none" transform="matrix(1 0 0 1 2722.62 1731)">âˆˆ</text><text fill="#000000" fill-opacity="1" font-family="Cambria Math,Cambria Math_MSFontService,sans-serif" font-style="normal" font-variant="normal" font-weight="400" font-stretch="normal" font-size="67" text-anchor="start" direction="ltr" writing-mode="lr-tb" unicode-bidi="normal" text-decoration="none" transform="matrix(1 0 0 1 2764.44 1731)">ğ»</text><text fill="#000000" fill-opacity="1" font-family="Cambria Math,Cambria Math_MSFontService,sans-serif" font-style="normal" font-variant="normal" font-weight="400" font-stretch="normal" font-size="92" text-anchor="start" direction="ltr" writing-mode="lr-tb" unicode-bidi="normal" text-decoration="none" transform="matrix(1 0 0 1 2878.61 1656)">ğ¿</text><text fill="#000000" fill-opacity="1" font-family="Cambria Math,Cambria Math_MSFontService,sans-serif" font-style="normal" font-variant="normal" font-weight="400" font-stretch="normal" font-size="67" text-anchor="start" direction="ltr" writing-mode="lr-tb" unicode-bidi="normal" text-decoration="none" transform="matrix(1 0 0 1 2924.69 1674)">ğ‘†</text><text fill="#000000" fill-opacity="1" font-family="Cambria Math,Cambria Math_MSFontService,sans-serif" font-style="normal" font-variant="normal" font-weight="400" font-stretch="normal" font-size="92" text-anchor="start" direction="ltr" writing-mode="lr-tb" unicode-bidi="normal" text-decoration="none" transform="matrix(1 0 0 1 2967.04 1656)">(</text><text fill="#000000" fill-opacity="1" font-family="Cambria Math,Cambria Math_MSFontService,sans-serif" font-style="normal" font-variant="normal" font-weight="400" font-stretch="normal" font-size="92" text-anchor="start" direction="ltr" writing-mode="lr-tb" unicode-bidi="normal" text-decoration="none" transform="matrix(1 0 0 1 3004.86 1656)">â„</text><text fill="#000000" fill-opacity="1" font-family="Cambria Math,Cambria Math_MSFontService,sans-serif" font-style="normal" font-variant="normal" font-weight="400" font-stretch="normal" font-size="92" text-anchor="start" direction="ltr" writing-mode="lr-tb" unicode-bidi="normal" text-decoration="none" transform="matrix(1 0 0 1 3057.41 1656)">)</text><text fill="#000000" fill-opacity="1" font-family="Cambria Math,Cambria Math_MSFontService,sans-serif" font-style="normal" font-variant="normal" font-weight="400" font-stretch="normal" font-size="92" text-anchor="start" direction="ltr" writing-mode="lr-tb" unicode-bidi="normal" text-decoration="none" transform="matrix(1 0 0 1 1903.28 1771)">ğ´</text><text fill="#000000" fill-opacity="1" font-family="Cambria Math,Cambria Math_MSFontService,sans-serif" font-style="normal" font-variant="normal" font-weight="400" font-stretch="normal" font-size="92" text-anchor="start" direction="ltr" writing-mode="lr-tb" unicode-bidi="normal" text-decoration="none" transform="matrix(1 0 0 1 1962.04 1771)">(</text><text fill="#000000" fill-opacity="1" font-family="Cambria Math,Cambria Math_MSFontService,sans-serif" font-style="normal" font-variant="normal" font-weight="400" font-stretch="normal" font-size="92" text-anchor="start" direction="ltr" writing-mode="lr-tb" unicode-bidi="normal" text-decoration="none" transform="matrix(1 0 0 1 1999.85 1771)">ğ‘†</text><text fill="#000000" fill-opacity="1" font-family="Cambria Math,Cambria Math_MSFontService,sans-serif" font-style="normal" font-variant="normal" font-weight="400" font-stretch="normal" font-size="92" text-anchor="start" direction="ltr" writing-mode="lr-tb" unicode-bidi="normal" text-decoration="none" transform="matrix(1 0 0 1 2050.34 1771)">)</text><text fill="#000000" fill-opacity="1" font-family="Times New Roman,Times New Roman_MSFontService,sans-serif" font-style="normal" font-variant="normal" font-weight="400" font-stretch="normal" font-size="92" text-anchor="start" direction="ltr" writing-mode="lr-tb" unicode-bidi="normal" text-decoration="none" transform="matrix(1 0 0 1 1373.05 926)">Hypothesis space: </text><text fill="#000000" fill-opacity="1" font-family="Cambria Math,Cambria Math_MSFontService,sans-serif" font-style="normal" font-variant="normal" font-weight="400" font-stretch="normal" font-size="92" text-anchor="start" direction="ltr" writing-mode="lr-tb" unicode-bidi="normal" text-decoration="none" transform="matrix(1 0 0 1 2059.4 926)">ğ»</text><path d="M35.0013 1.96058 88.2457 15.7462 84.7993 29.0573 31.5549 15.2717ZM128.179 26.0854 181.423 39.871 177.977 53.1821 124.732 39.3965ZM221.356 50.2102 274.601 63.9958 271.154 77.3069 217.91 63.5213ZM314.534 74.335 367.778 88.1207 364.332 101.432 311.088 87.6461ZM407.712 98.4599 460.956 112.245 457.509 125.557 404.265 111.771ZM500.889 122.585 554.133 136.37 550.687 149.681 497.443 135.896ZM594.067 146.709 647.311 160.495 643.865 173.806 590.62 160.021ZM34.7636 30.3058 0 0 45.1028-9.62741ZM646.167 145.996 680.931 176.301 635.828 185.929Z" fill="#000000" fill-rule="nonzero" fill-opacity="1" transform="matrix(1 0 0 -1 2028 1612.3)"/><path d="M31.8808 14.5756 76.4445 46.8103 68.3858 57.9513 23.8221 25.7165ZM109.867 70.9864 121.008 79.0451 112.949 90.186 101.809 82.1273ZM154.431 103.221 198.995 135.456 190.936 146.597 146.372 114.362ZM232.417 159.632 243.558 167.691 235.5 178.831 224.359 170.773ZM276.981 191.867 321.545 224.101 313.486 235.242 268.922 203.008ZM354.967 248.277 366.108 256.336 358.05 267.477 346.909 259.418ZM399.531 280.512 444.095 312.747 436.036 323.888 391.473 291.653ZM477.518 336.923 488.659 344.982 480.6 356.122 469.459 348.064ZM522.081 369.158 566.645 401.392 558.586 412.533 514.023 380.299ZM600.068 425.568 611.209 433.627 603.15 444.768 592.009 436.709ZM644.631 457.803 689.195 490.038 681.136 501.179 636.573 468.944ZM722.618 514.214 733.759 522.273 725.7 533.414 714.559 525.355ZM21.3348 40.8874 0 0 45.5108 7.46464ZM751.754 518.319 773.089 559.206 727.578 551.742Z" fill="#000000" fill-rule="nonzero" fill-opacity="1" transform="matrix(1 0 0 -1 2764 1413.21)"/><path d="M25.8803 23.6452 34.0154 34.7305 22.9302 42.8656 14.7951 31.7804ZM42.1505 45.8157 50.2857 56.9009 39.2004 65.036 31.0653 53.9508ZM58.4208 67.9861 66.5559 79.0714 55.4707 87.2065 47.3356 76.1213ZM74.6911 90.1566 82.8262 101.242 71.741 109.377 63.6059 98.2917ZM90.9613 112.327 99.0965 123.412 88.0113 131.547 79.8761 120.462ZM107.232 134.497 115.367 145.583 104.282 153.718 96.1464 142.633ZM123.502 156.668 131.637 167.753 120.552 175.888 112.417 164.803ZM139.772 178.838 147.907 189.924 136.822 198.059 128.687 186.973ZM156.042 201.009 164.178 212.094 153.092 220.229 144.957 209.144ZM172.313 223.179 180.448 234.264 169.363 242.4 161.227 231.314ZM188.583 245.35 196.718 256.435 185.633 264.57 177.498 253.485ZM204.853 267.52 212.988 278.605 201.903 286.74 193.768 275.655ZM221.123 289.691 229.259 300.776 218.173 308.911 210.038 297.826ZM237.394 311.861 243.641 320.374 232.556 328.509 226.309 319.996ZM7.77758 45.4584 0 0 41.0332 21.053ZM250.659 306.697 258.437 352.155 217.404 331.102Z" fill="#000000" fill-rule="nonzero" fill-opacity="1" transform="matrix(1 0 0 -1 3573 802.155)"/><path d="M866.5 1238C866.5 1220.05 881.051 1205.5 899 1205.5 916.949 1205.5 931.5 1220.05 931.5 1238 931.5 1255.95 916.949 1270.5 899 1270.5 881.051 1270.5 866.5 1255.95 866.5 1238Z" stroke="#00FDFF" stroke-width="4.58333" stroke-linecap="butt" stroke-linejoin="miter" stroke-miterlimit="8" stroke-opacity="1" fill="#00FDFF" fill-rule="evenodd" fill-opacity="1"/><text fill="#000000" fill-opacity="1" font-family="Times New Roman,Times New Roman_MSFontService,sans-serif" font-style="normal" font-variant="normal" font-weight="400" font-stretch="normal" font-size="83" text-anchor="start" direction="ltr" writing-mode="lr-tb" unicode-bidi="normal" text-decoration="none" transform="matrix(1 0 0 1 643.738 1150)">Initialization: </text><text fill="#000000" fill-opacity="1" font-family="Cambria Math,Cambria Math_MSFontService,sans-serif" font-style="normal" font-variant="normal" font-weight="400" font-stretch="normal" font-size="83" text-anchor="start" direction="ltr" writing-mode="lr-tb" unicode-bidi="normal" text-decoration="none" transform="matrix(1 0 0 1 1108.95 1150)">ğ‘“</text><text fill="#000000" fill-opacity="1" font-family="Cambria Math,Cambria Math_MSFontService,sans-serif" font-style="normal" font-variant="normal" font-weight="400" font-stretch="normal" font-size="61" text-anchor="start" direction="ltr" writing-mode="lr-tb" unicode-bidi="normal" text-decoration="none" transform="matrix(1 0 0 1 1141.33 1167)">ğœƒ</text><text fill="#000000" fill-opacity="1" font-family="Cambria Math,Cambria Math_MSFontService,sans-serif" font-style="normal" font-variant="normal" font-weight="400" font-stretch="normal" font-size="50" text-anchor="start" direction="ltr" writing-mode="lr-tb" unicode-bidi="normal" text-decoration="none" transform="matrix(1 0 0 1 1176.55 1179)">0</text><path d="M922 1248 1030.46 1275.08C1044.02 1277.33 1084.7 1269.81 1111.81 1288.61 1138.93 1307.42 1143.45 1383.38 1193.16 1387.89 1242.87 1392.4 1356.61 1293.13 1410.09 1315.69 1463.56 1338.25 1495.2 1462.35 1514.03 1523.27 1532.86 1584.19 1487.67 1669.18 1523.07 1681.21 1558.47 1693.25 1685.01 1594.72 1726.44 1595.47 1767.86 1596.23 1730.2 1681.97 1771.63 1685.73 1813.06 1689.49 1894.03 1653.76 1975 1618.04" stroke="#172C51" stroke-width="13.75" stroke-linecap="butt" stroke-linejoin="miter" stroke-miterlimit="8" stroke-opacity="1" fill="none" fill-rule="evenodd"/><path d="M2.57673-6.37386 36.2754 7.24933 31.122 19.9971-2.57673 6.37386ZM35.055-8.07512 65.568 26.5068 19.5947 30.1681Z" fill="#000000" fill-rule="nonzero" fill-opacity="1" transform="matrix(1 0 0 -1 1910 1647.51)"/><text fill="#000000" fill-opacity="1" font-family="Times New Roman,Times New Roman_MSFontService,sans-serif" font-style="normal" font-variant="normal" font-weight="400" font-stretch="normal" font-size="83" text-anchor="start" direction="ltr" writing-mode="lr-tb" unicode-bidi="normal" text-decoration="none" transform="matrix(0.907236 0.420622 -0.420622 0.907236 946.037 1526)">Optimization process</text><text fill="#000000" fill-opacity="1" font-family="Times New Roman,Times New Roman_MSFontService,sans-serif" font-style="normal" font-variant="normal" font-weight="400" font-stretch="normal" font-size="83" text-anchor="start" direction="ltr" writing-mode="lr-tb" unicode-bidi="normal" text-decoration="none" transform="matrix(0.966449 -0.256857 0.256857 0.966449 2055.3 1539)">Optimization error</text><text fill="#000000" fill-opacity="1" font-family="Times New Roman,Times New Roman_MSFontService,sans-serif" font-style="normal" font-variant="normal" font-weight="400" font-stretch="normal" font-size="83" text-anchor="start" direction="ltr" writing-mode="lr-tb" unicode-bidi="normal" text-decoration="none" transform="matrix(0.806181 -0.591669 0.591669 0.806181 2934.52 1431)">Generalization error</text><text fill="#000000" fill-opacity="1" font-family="Times New Roman,Times New Roman_MSFontService,sans-serif" font-style="normal" font-variant="normal" font-weight="400" font-stretch="normal" font-size="83" text-anchor="start" direction="ltr" writing-mode="lr-tb" unicode-bidi="normal" text-decoration="none" transform="matrix(0.600463 -0.799652 0.799652 0.600463 3626.08 957)">Approximation error</text></g></g></svg>