<?xml version="1.0" encoding="utf-8" standalone="no"?>
<!DOCTYPE svg PUBLIC "-//W3C//DTD SVG 1.1//EN"
  "http://www.w3.org/Graphics/SVG/1.1/DTD/svg11.dtd">
<svg xmlns:xlink="http://www.w3.org/1999/xlink" width="388.192813pt" height="235.01625pt" viewBox="0 0 388.192813 235.01625" xmlns="http://www.w3.org/2000/svg" version="1.1">
 <metadata>
  <rdf:RDF xmlns:dc="http://purl.org/dc/elements/1.1/" xmlns:cc="http://creativecommons.org/ns#" xmlns:rdf="http://www.w3.org/1999/02/22-rdf-syntax-ns#">
   <cc:Work>
    <dc:type rdf:resource="http://purl.org/dc/dcmitype/StillImage"/>
    <dc:date>2023-07-17T16:41:57.660868</dc:date>
    <dc:format>image/svg+xml</dc:format>
    <dc:creator>
     <cc:Agent>
      <dc:title>Matplotlib v3.5.1, https://matplotlib.org/</dc:title>
     </cc:Agent>
    </dc:creator>
   </cc:Work>
  </rdf:RDF>
 </metadata>
 <defs>
  <style type="text/css">*{stroke-linejoin: round; stroke-linecap: butt}</style>
 </defs>
 <g id="figure_1">
  <g id="patch_1">
   <path d="M 0 235.01625 
L 388.192813 235.01625 
L 388.192813 0 
L 0 0 
L 0 235.01625 
z
" style="fill: none"/>
  </g>
  <g id="axes_1">
   <g id="patch_2">
    <path d="M 48.982813 197.46 
L 380.992813 197.46 
L 380.992813 7.2 
L 48.982813 7.2 
z
" style="fill: #ffffff"/>
   </g>
   <g id="matplotlib.axis_1">
    <g id="xtick_1">
     <g id="line2d_1">
      <defs>
       <path id="m518a82dbdc" d="M 0 0 
L 0 3.5 
" style="stroke: #000000; stroke-width: 0.8"/>
      </defs>
      <g>
       <use xlink:href="#m518a82dbdc" x="69.733437" y="197.46" style="stroke: #000000; stroke-width: 0.8"/>
      </g>
     </g>
     <g id="text_1">
      <!-- −3 -->
      <g transform="translate(62.362344 212.058437)scale(0.1 -0.1)">
       <defs>
        <path id="DejaVuSans-2212" d="M 678 2272 
L 4684 2272 
L 4684 1741 
L 678 1741 
L 678 2272 
z
" transform="scale(0.015625)"/>
        <path id="DejaVuSans-33" d="M 2597 2516 
Q 3050 2419 3304 2112 
Q 3559 1806 3559 1356 
Q 3559 666 3084 287 
Q 2609 -91 1734 -91 
Q 1441 -91 1130 -33 
Q 819 25 488 141 
L 488 750 
Q 750 597 1062 519 
Q 1375 441 1716 441 
Q 2309 441 2620 675 
Q 2931 909 2931 1356 
Q 2931 1769 2642 2001 
Q 2353 2234 1838 2234 
L 1294 2234 
L 1294 2753 
L 1863 2753 
Q 2328 2753 2575 2939 
Q 2822 3125 2822 3475 
Q 2822 3834 2567 4026 
Q 2313 4219 1838 4219 
Q 1578 4219 1281 4162 
Q 984 4106 628 3988 
L 628 4550 
Q 988 4650 1302 4700 
Q 1616 4750 1894 4750 
Q 2613 4750 3031 4423 
Q 3450 4097 3450 3541 
Q 3450 3153 3228 2886 
Q 3006 2619 2597 2516 
z
" transform="scale(0.015625)"/>
       </defs>
       <use xlink:href="#DejaVuSans-2212"/>
       <use xlink:href="#DejaVuSans-33" x="83.789062"/>
      </g>
     </g>
    </g>
    <g id="xtick_2">
     <g id="line2d_2">
      <g>
       <use xlink:href="#m518a82dbdc" x="111.234687" y="197.46" style="stroke: #000000; stroke-width: 0.8"/>
      </g>
     </g>
     <g id="text_2">
      <!-- −2 -->
      <g transform="translate(103.863594 212.058437)scale(0.1 -0.1)">
       <defs>
        <path id="DejaVuSans-32" d="M 1228 531 
L 3431 531 
L 3431 0 
L 469 0 
L 469 531 
Q 828 903 1448 1529 
Q 2069 2156 2228 2338 
Q 2531 2678 2651 2914 
Q 2772 3150 2772 3378 
Q 2772 3750 2511 3984 
Q 2250 4219 1831 4219 
Q 1534 4219 1204 4116 
Q 875 4013 500 3803 
L 500 4441 
Q 881 4594 1212 4672 
Q 1544 4750 1819 4750 
Q 2544 4750 2975 4387 
Q 3406 4025 3406 3419 
Q 3406 3131 3298 2873 
Q 3191 2616 2906 2266 
Q 2828 2175 2409 1742 
Q 1991 1309 1228 531 
z
" transform="scale(0.015625)"/>
       </defs>
       <use xlink:href="#DejaVuSans-2212"/>
       <use xlink:href="#DejaVuSans-32" x="83.789062"/>
      </g>
     </g>
    </g>
    <g id="xtick_3">
     <g id="line2d_3">
      <g>
       <use xlink:href="#m518a82dbdc" x="152.735938" y="197.46" style="stroke: #000000; stroke-width: 0.8"/>
      </g>
     </g>
     <g id="text_3">
      <!-- −1 -->
      <g transform="translate(145.364844 212.058437)scale(0.1 -0.1)">
       <defs>
        <path id="DejaVuSans-31" d="M 794 531 
L 1825 531 
L 1825 4091 
L 703 3866 
L 703 4441 
L 1819 4666 
L 2450 4666 
L 2450 531 
L 3481 531 
L 3481 0 
L 794 0 
L 794 531 
z
" transform="scale(0.015625)"/>
       </defs>
       <use xlink:href="#DejaVuSans-2212"/>
       <use xlink:href="#DejaVuSans-31" x="83.789062"/>
      </g>
     </g>
    </g>
    <g id="xtick_4">
     <g id="line2d_4">
      <g>
       <use xlink:href="#m518a82dbdc" x="194.237188" y="197.46" style="stroke: #000000; stroke-width: 0.8"/>
      </g>
     </g>
     <g id="text_4">
      <!-- 0 -->
      <g transform="translate(191.055937 212.058437)scale(0.1 -0.1)">
       <defs>
        <path id="DejaVuSans-30" d="M 2034 4250 
Q 1547 4250 1301 3770 
Q 1056 3291 1056 2328 
Q 1056 1369 1301 889 
Q 1547 409 2034 409 
Q 2525 409 2770 889 
Q 3016 1369 3016 2328 
Q 3016 3291 2770 3770 
Q 2525 4250 2034 4250 
z
M 2034 4750 
Q 2819 4750 3233 4129 
Q 3647 3509 3647 2328 
Q 3647 1150 3233 529 
Q 2819 -91 2034 -91 
Q 1250 -91 836 529 
Q 422 1150 422 2328 
Q 422 3509 836 4129 
Q 1250 4750 2034 4750 
z
" transform="scale(0.015625)"/>
       </defs>
       <use xlink:href="#DejaVuSans-30"/>
      </g>
     </g>
    </g>
    <g id="xtick_5">
     <g id="line2d_5">
      <g>
       <use xlink:href="#m518a82dbdc" x="235.738438" y="197.46" style="stroke: #000000; stroke-width: 0.8"/>
      </g>
     </g>
     <g id="text_5">
      <!-- 1 -->
      <g transform="translate(232.557187 212.058437)scale(0.1 -0.1)">
       <use xlink:href="#DejaVuSans-31"/>
      </g>
     </g>
    </g>
    <g id="xtick_6">
     <g id="line2d_6">
      <g>
       <use xlink:href="#m518a82dbdc" x="277.239688" y="197.46" style="stroke: #000000; stroke-width: 0.8"/>
      </g>
     </g>
     <g id="text_6">
      <!-- 2 -->
      <g transform="translate(274.058438 212.058437)scale(0.1 -0.1)">
       <use xlink:href="#DejaVuSans-32"/>
      </g>
     </g>
    </g>
    <g id="xtick_7">
     <g id="line2d_7">
      <g>
       <use xlink:href="#m518a82dbdc" x="318.740938" y="197.46" style="stroke: #000000; stroke-width: 0.8"/>
      </g>
     </g>
     <g id="text_7">
      <!-- 3 -->
      <g transform="translate(315.559688 212.058437)scale(0.1 -0.1)">
       <use xlink:href="#DejaVuSans-33"/>
      </g>
     </g>
    </g>
    <g id="xtick_8">
     <g id="line2d_8">
      <g>
       <use xlink:href="#m518a82dbdc" x="360.242188" y="197.46" style="stroke: #000000; stroke-width: 0.8"/>
      </g>
     </g>
     <g id="text_8">
      <!-- 4 -->
      <g transform="translate(357.060938 212.058437)scale(0.1 -0.1)">
       <defs>
        <path id="DejaVuSans-34" d="M 2419 4116 
L 825 1625 
L 2419 1625 
L 2419 4116 
z
M 2253 4666 
L 3047 4666 
L 3047 1625 
L 3713 1625 
L 3713 1100 
L 3047 1100 
L 3047 0 
L 2419 0 
L 2419 1100 
L 313 1100 
L 313 1709 
L 2253 4666 
z
" transform="scale(0.015625)"/>
       </defs>
       <use xlink:href="#DejaVuSans-34"/>
      </g>
     </g>
    </g>
    <g id="text_9">
     <!-- x -->
     <g transform="translate(212.028438 225.736562)scale(0.1 -0.1)">
      <defs>
       <path id="DejaVuSans-78" d="M 3513 3500 
L 2247 1797 
L 3578 0 
L 2900 0 
L 1881 1375 
L 863 0 
L 184 0 
L 1544 1831 
L 300 3500 
L 978 3500 
L 1906 2253 
L 2834 3500 
L 3513 3500 
z
" transform="scale(0.015625)"/>
      </defs>
      <use xlink:href="#DejaVuSans-78"/>
     </g>
    </g>
   </g>
   <g id="matplotlib.axis_2">
    <g id="ytick_1">
     <g id="line2d_9">
      <defs>
       <path id="mbe72ebe518" d="M 0 0 
L -3.5 0 
" style="stroke: #000000; stroke-width: 0.8"/>
      </defs>
      <g>
       <use xlink:href="#mbe72ebe518" x="48.982813" y="194.487187" style="stroke: #000000; stroke-width: 0.8"/>
      </g>
     </g>
     <g id="text_10">
      <!-- −30 -->
      <g transform="translate(20.878125 198.286406)scale(0.1 -0.1)">
       <use xlink:href="#DejaVuSans-2212"/>
       <use xlink:href="#DejaVuSans-33" x="83.789062"/>
       <use xlink:href="#DejaVuSans-30" x="147.412109"/>
      </g>
     </g>
    </g>
    <g id="ytick_2">
     <g id="line2d_10">
      <g>
       <use xlink:href="#mbe72ebe518" x="48.982813" y="164.759062" style="stroke: #000000; stroke-width: 0.8"/>
      </g>
     </g>
     <g id="text_11">
      <!-- −20 -->
      <g transform="translate(20.878125 168.558281)scale(0.1 -0.1)">
       <use xlink:href="#DejaVuSans-2212"/>
       <use xlink:href="#DejaVuSans-32" x="83.789062"/>
       <use xlink:href="#DejaVuSans-30" x="147.412109"/>
      </g>
     </g>
    </g>
    <g id="ytick_3">
     <g id="line2d_11">
      <g>
       <use xlink:href="#mbe72ebe518" x="48.982813" y="135.030937" style="stroke: #000000; stroke-width: 0.8"/>
      </g>
     </g>
     <g id="text_12">
      <!-- −10 -->
      <g transform="translate(20.878125 138.830156)scale(0.1 -0.1)">
       <use xlink:href="#DejaVuSans-2212"/>
       <use xlink:href="#DejaVuSans-31" x="83.789062"/>
       <use xlink:href="#DejaVuSans-30" x="147.412109"/>
      </g>
     </g>
    </g>
    <g id="ytick_4">
     <g id="line2d_12">
      <g>
       <use xlink:href="#mbe72ebe518" x="48.982813" y="105.302812" style="stroke: #000000; stroke-width: 0.8"/>
      </g>
     </g>
     <g id="text_13">
      <!-- 0 -->
      <g transform="translate(35.620312 109.102031)scale(0.1 -0.1)">
       <use xlink:href="#DejaVuSans-30"/>
      </g>
     </g>
    </g>
    <g id="ytick_5">
     <g id="line2d_13">
      <g>
       <use xlink:href="#mbe72ebe518" x="48.982813" y="75.574687" style="stroke: #000000; stroke-width: 0.8"/>
      </g>
     </g>
     <g id="text_14">
      <!-- 10 -->
      <g transform="translate(29.257812 79.373906)scale(0.1 -0.1)">
       <use xlink:href="#DejaVuSans-31"/>
       <use xlink:href="#DejaVuSans-30" x="63.623047"/>
      </g>
     </g>
    </g>
    <g id="ytick_6">
     <g id="line2d_14">
      <g>
       <use xlink:href="#mbe72ebe518" x="48.982813" y="45.846562" style="stroke: #000000; stroke-width: 0.8"/>
      </g>
     </g>
     <g id="text_15">
      <!-- 20 -->
      <g transform="translate(29.257812 49.645781)scale(0.1 -0.1)">
       <use xlink:href="#DejaVuSans-32"/>
       <use xlink:href="#DejaVuSans-30" x="63.623047"/>
      </g>
     </g>
    </g>
    <g id="ytick_7">
     <g id="line2d_15">
      <g>
       <use xlink:href="#mbe72ebe518" x="48.982813" y="16.118437" style="stroke: #000000; stroke-width: 0.8"/>
      </g>
     </g>
     <g id="text_16">
      <!-- 30 -->
      <g transform="translate(29.257812 19.917656)scale(0.1 -0.1)">
       <use xlink:href="#DejaVuSans-33"/>
       <use xlink:href="#DejaVuSans-30" x="63.623047"/>
      </g>
     </g>
    </g>
    <g id="text_17">
     <!-- y -->
     <g transform="translate(14.798438 105.289375)rotate(-90)scale(0.1 -0.1)">
      <defs>
       <path id="DejaVuSans-79" d="M 2059 -325 
Q 1816 -950 1584 -1140 
Q 1353 -1331 966 -1331 
L 506 -1331 
L 506 -850 
L 844 -850 
Q 1081 -850 1212 -737 
Q 1344 -625 1503 -206 
L 1606 56 
L 191 3500 
L 800 3500 
L 1894 763 
L 2988 3500 
L 3597 3500 
L 2059 -325 
z
" transform="scale(0.015625)"/>
      </defs>
      <use xlink:href="#DejaVuSans-79"/>
     </g>
    </g>
   </g>
   <g id="line2d_16">
    <defs>
     <path id="m8c5942d020" d="M 0 3 
C 0.795609 3 1.55874 2.683901 2.12132 2.12132 
C 2.683901 1.55874 3 0.795609 3 0 
C 3 -0.795609 2.683901 -1.55874 2.12132 -2.12132 
C 1.55874 -2.683901 0.795609 -3 0 -3 
C -0.795609 -3 -1.55874 -2.683901 -2.12132 -2.12132 
C -2.683901 -1.55874 -3 -0.795609 -3 0 
C -3 0.795609 -2.683901 1.55874 -2.12132 2.12132 
C -1.55874 2.683901 -0.795609 3 0 3 
z
" style="stroke: #ff0000"/>
    </defs>
    <g clip-path="url(#pea7859099f)">
     <use xlink:href="#m8c5942d020" x="111.234687" y="158.813437" style="fill: #ff0000; stroke: #ff0000"/>
     <use xlink:href="#m8c5942d020" x="173.486562" y="105.302812" style="fill: #ff0000; stroke: #ff0000"/>
     <use xlink:href="#m8c5942d020" x="235.738438" y="114.22125" style="fill: #ff0000; stroke: #ff0000"/>
     <use xlink:href="#m8c5942d020" x="297.990313" y="120.166875" style="fill: #ff0000; stroke: #ff0000"/>
     <use xlink:href="#m8c5942d020" x="360.242188" y="69.629063" style="fill: #ff0000; stroke: #ff0000"/>
    </g>
   </g>
   <g id="line2d_17">
    <path d="M 111.234687 158.813352 
L 115.384813 155.07439 
L 119.534939 151.335427 
L 123.685061 147.596472 
L 127.835187 143.862034 
L 131.985312 140.187252 
L 136.135438 136.51247 
L 140.285564 132.905197 
L 144.435686 129.373477 
L 148.585812 125.898938 
L 152.735938 122.424399 
L 156.886061 118.949862 
L 161.036185 115.476129 
L 165.186311 112.085109 
L 169.336437 108.69409 
L 173.48656 105.303073 
L 177.636687 105.902727 
L 181.786812 106.502383 
L 185.936937 107.10204 
L 190.087062 107.701696 
L 194.237187 108.300746 
L 198.387312 108.892777 
L 202.537437 109.484809 
L 206.687562 110.076839 
L 210.837688 110.668871 
L 214.987813 111.260902 
L 219.137938 111.852934 
L 223.288062 112.444965 
L 227.438188 113.036995 
L 231.588312 113.629026 
L 235.738438 114.221058 
L 239.888563 114.81309 
L 244.038689 115.405121 
L 248.188815 115.997151 
L 252.338941 116.589183 
L 256.489063 117.181213 
L 260.639188 117.764858 
L 264.789314 118.313313 
L 268.93944 118.861767 
L 273.089566 119.410222 
L 277.239688 119.958676 
L 281.389809 120.50713 
L 285.539939 121.055584 
L 289.690061 121.60404 
L 293.840191 122.152495 
L 297.990313 120.166986 
L 302.140434 116.862099 
L 306.290564 113.557206 
L 310.440686 110.252321 
L 314.590816 106.941467 
L 318.740938 103.549428 
L 322.891059 100.15739 
L 327.041189 96.765345 
L 331.191311 93.373306 
L 335.341441 89.981263 
L 339.491562 86.58923 
L 343.641684 83.19718 
L 347.791814 79.80514 
L 351.941936 76.413099 
L 356.092066 73.021058 
L 360.242188 69.629026 
" clip-path="url(#pea7859099f)" style="fill: none; stroke: #1f77b4; stroke-width: 2; stroke-linecap: square"/>
   </g>
   <g id="line2d_18">
    <path d="M 111.234687 158.813437 
L 115.384813 155.2659 
L 119.534939 151.677677 
L 123.685061 148.089456 
L 127.835187 144.501232 
L 131.985312 140.913008 
L 136.135438 137.324782 
L 140.285564 133.736555 
L 144.435686 130.148334 
L 148.585812 126.55413 
L 152.735938 122.932856 
L 156.886061 119.314285 
L 161.036185 115.703186 
L 165.186311 112.085625 
L 169.336437 108.605693 
L 173.48656 105.302814 
L 177.636687 105.024282 
L 181.786812 105.655827 
L 185.936937 106.28179 
L 190.087062 106.907755 
L 194.237187 107.533719 
L 198.387312 108.181931 
L 202.537437 108.914815 
L 206.687562 109.650687 
L 210.837688 110.386561 
L 214.987813 111.122436 
L 219.137938 111.834945 
L 223.288062 112.505472 
L 227.438188 113.094587 
L 231.588312 113.653528 
L 235.738438 114.221254 
L 239.888563 114.787956 
L 244.038689 115.304995 
L 248.188815 115.79724 
L 252.338941 116.289482 
L 256.489063 116.781726 
L 260.639188 117.235221 
L 264.789314 117.588998 
L 268.93944 117.93912 
L 273.089566 118.289244 
L 277.239688 118.639368 
L 281.389809 118.992993 
L 285.539939 119.354657 
L 289.690061 119.648917 
L 293.840191 119.907893 
L 297.990313 120.166875 
L 302.140434 116.775482 
L 306.290564 113.379397 
L 310.440686 109.983341 
L 314.590816 106.606123 
L 318.740938 103.243887 
L 322.891059 99.881657 
L 327.041189 96.519409 
L 331.191311 93.157181 
L 335.341441 89.794935 
L 339.491562 86.432696 
L 343.641684 83.070466 
L 347.791814 79.708225 
L 351.941936 76.345995 
L 356.092066 72.983751 
L 360.242188 69.629068 
" clip-path="url(#pea7859099f)" style="fill: none; stroke: #ff7f0e; stroke-width: 2; stroke-linecap: square"/>
   </g>
   <g id="line2d_19">
    <path d="M 111.234687 158.813437 
L 115.384813 155.665042 
L 119.534939 152.296912 
L 123.685061 148.855912 
L 127.835187 145.414912 
L 131.985312 141.917156 
L 136.135438 138.386604 
L 140.285564 134.80102 
L 144.435686 131.045285 
L 148.585812 127.168298 
L 152.735938 123.256257 
L 156.886061 119.331324 
L 161.036185 115.423292 
L 165.186311 111.544467 
L 169.336437 108.082211 
L 173.48656 105.302813 
L 177.636687 105.456129 
L 181.786812 105.609441 
L 185.936937 105.760953 
L 190.087062 106.022352 
L 194.237187 106.487759 
L 198.387312 106.998419 
L 202.537437 107.707968 
L 206.687562 108.418095 
L 210.837688 109.129233 
L 214.987813 109.925308 
L 219.137938 110.801209 
L 223.288062 111.673801 
L 227.438188 112.5464 
L 231.588312 113.419005 
L 235.738438 114.22125 
L 239.888563 114.960989 
L 244.038689 115.69155 
L 248.188815 116.422401 
L 252.338941 117.188081 
L 256.489063 117.953757 
L 260.639188 118.71944 
L 264.789314 119.406477 
L 268.93944 120.088867 
L 273.089566 120.772112 
L 277.239688 121.455946 
L 281.389809 122.082483 
L 285.539939 122.615392 
L 289.690061 122.965655 
L 293.840191 122.894041 
L 297.990313 120.166875 
L 302.140434 116.547302 
L 306.290564 112.742055 
L 310.440686 108.905717 
L 314.590816 105.048838 
L 318.740938 101.135088 
L 322.891059 97.221349 
L 327.041189 93.303795 
L 331.191311 89.378765 
L 335.341441 85.454466 
L 339.491562 81.604107 
L 343.641684 78.045892 
L 347.791814 74.846729 
L 351.941936 72.575064 
L 356.092066 70.938114 
L 360.242188 69.629071 
" clip-path="url(#pea7859099f)" style="fill: none; stroke: #2ca02c; stroke-width: 2; stroke-linecap: square"/>
   </g>
   <g id="line2d_20">
    <path d="M 111.234687 158.813437 
L 115.384813 156.097643 
L 119.534939 153.20262 
L 123.685061 150.192209 
L 127.835187 147.080505 
L 131.985312 143.935939 
L 136.135438 140.662927 
L 140.285564 136.896101 
L 144.435686 132.867873 
L 148.585812 128.729305 
L 152.735938 124.586839 
L 156.886061 120.479278 
L 161.036185 116.302923 
L 165.186311 112.095828 
L 169.336437 107.884079 
L 173.48656 105.302812 
L 177.636687 104.549551 
L 181.786812 104.918548 
L 185.936937 105.788144 
L 190.087062 106.604373 
L 194.237187 107.447689 
L 198.387312 108.413621 
L 202.537437 109.42544 
L 206.687562 110.332597 
L 210.837688 111.185204 
L 214.987813 111.730816 
L 219.137938 112.180768 
L 223.288062 112.634921 
L 227.438188 113.107805 
L 231.588312 113.651074 
L 235.738438 114.22125 
L 239.888563 114.866828 
L 244.038689 115.501304 
L 248.188815 116.114774 
L 252.338941 116.607497 
L 256.489063 116.998692 
L 260.639188 117.41904 
L 264.789314 117.855185 
L 268.93944 118.286286 
L 273.089566 118.724227 
L 277.239688 119.144852 
L 281.389809 119.55218 
L 285.539939 119.926608 
L 289.690061 120.157637 
L 293.840191 120.285658 
L 297.990313 120.166876 
L 302.140434 118.522734 
L 306.290564 115.144059 
L 310.440686 111.124141 
L 314.590816 106.751964 
L 318.740938 102.292804 
L 322.891059 97.89095 
L 327.041189 93.519414 
L 331.191311 89.184213 
L 335.341441 85.223121 
L 339.491562 81.694061 
L 343.641684 78.767427 
L 347.791814 76.145528 
L 351.941936 73.749544 
L 356.092066 71.639848 
L 360.242188 69.629063 
" clip-path="url(#pea7859099f)" style="fill: none; stroke: #d62728; stroke-width: 2; stroke-linecap: square"/>
   </g>
   <g id="line2d_21">
    <path d="M 111.234687 158.813432 
L 115.384813 155.892434 
L 119.534939 152.964399 
L 123.685061 149.979483 
L 127.835187 146.968096 
L 131.985312 143.912692 
L 136.135438 140.558723 
L 140.285564 136.838923 
L 144.435686 132.92857 
L 148.585812 128.476578 
L 152.735938 123.433213 
L 156.886061 118.079465 
L 161.036185 111.969495 
L 165.186311 107.919893 
L 169.336437 105.542507 
L 173.48656 105.302811 
L 177.636687 105.876642 
L 181.786812 106.485566 
L 185.936937 107.093544 
L 190.087062 107.624044 
L 194.237187 108.156062 
L 198.387312 108.711063 
L 202.537437 109.267855 
L 206.687562 109.804354 
L 210.837688 110.336903 
L 214.987813 110.861874 
L 219.137938 111.421562 
L 223.288062 112.068836 
L 227.438188 112.742866 
L 231.588312 113.401641 
L 235.738438 114.22125 
L 239.888563 115.016083 
L 244.038689 115.802398 
L 248.188815 116.590233 
L 252.338941 117.247067 
L 256.489063 117.754782 
L 260.639188 118.241922 
L 264.789314 118.715267 
L 268.93944 119.151854 
L 273.089566 119.555777 
L 277.239688 119.849981 
L 281.389809 120.121964 
L 285.539939 120.196093 
L 289.690061 120.222673 
L 293.840191 120.24086 
L 297.990313 120.166875 
L 302.140434 118.6109 
L 306.290564 115.592231 
L 310.440686 111.523214 
L 314.590816 107.048583 
L 318.740938 102.572963 
L 322.891059 98.254599 
L 327.041189 93.976754 
L 331.191311 89.675878 
L 335.341441 85.494953 
L 339.491562 81.556164 
L 343.641684 78.174019 
L 347.791814 75.709675 
L 351.941936 73.542948 
L 356.092066 71.516039 
L 360.242188 69.62906 
" clip-path="url(#pea7859099f)" style="fill: none; stroke: #9467bd; stroke-width: 2; stroke-linecap: square"/>
   </g>
   <g id="line2d_22">
    <path d="M 111.234687 158.813437 
L 115.384813 161.078644 
L 119.534939 164.01096 
L 123.685061 167.31942 
L 127.835187 170.749958 
L 131.985312 174.063861 
L 136.135438 177.046874 
L 140.285564 179.382919 
L 144.435686 179.623125 
L 148.585812 169.258369 
L 152.735938 158.813437 
L 156.886061 139.94031 
L 161.036185 116.028079 
L 165.186311 108.053263 
L 169.336437 105.680954 
L 173.48656 105.302813 
L 177.636687 97.646668 
L 181.786812 89.813621 
L 185.936937 82.534433 
L 190.087062 74.984534 
L 194.237187 69.629063 
L 198.387312 64.785856 
L 202.537437 59.170128 
L 206.687562 52.799746 
L 210.837688 47.351006 
L 214.987813 45.846562 
L 219.137938 49.517443 
L 223.288062 63.355026 
L 227.438188 94.299253 
L 231.588312 109.105677 
L 235.738438 114.221251 
L 239.888563 112.92164 
L 244.038689 110.225699 
L 248.188815 106.461499 
L 252.338941 98.078232 
L 256.489063 87.900539 
L 260.639188 79.157842 
L 264.789314 75.574685 
L 268.93944 75.195377 
L 273.089566 75.083672 
L 277.239688 75.401242 
L 281.389809 75.900108 
L 285.539939 77.367327 
L 289.690061 87.297792 
L 293.840191 112.448951 
L 297.990313 120.166878 
L 302.140434 126.748882 
L 306.290564 133.178228 
L 310.440686 140.806187 
L 314.590816 148.344512 
L 318.740938 153.590563 
L 322.891059 155.840625 
L 327.041189 153.386607 
L 331.191311 146.650296 
L 335.341441 135.535009 
L 339.491562 121.631115 
L 343.641684 104.946186 
L 347.791814 86.974509 
L 351.941936 78.060504 
L 356.092066 73.703823 
L 360.242188 69.629063 
" clip-path="url(#pea7859099f)" style="fill: none; stroke-dasharray: 7.4,3.2; stroke-dashoffset: 0; stroke: #bf00bf; stroke-width: 2"/>
   </g>
   <g id="patch_3">
    <path d="M 48.982813 197.46 
L 48.982813 7.2 
" style="fill: none; stroke: #000000; stroke-width: 0.8; stroke-linejoin: miter; stroke-linecap: square"/>
   </g>
   <g id="patch_4">
    <path d="M 380.992813 197.46 
L 380.992813 7.2 
" style="fill: none; stroke: #000000; stroke-width: 0.8; stroke-linejoin: miter; stroke-linecap: square"/>
   </g>
   <g id="patch_5">
    <path d="M 48.982812 197.46 
L 380.992813 197.46 
" style="fill: none; stroke: #000000; stroke-width: 0.8; stroke-linejoin: miter; stroke-linecap: square"/>
   </g>
   <g id="patch_6">
    <path d="M 48.982812 7.2 
L 380.992813 7.2 
" style="fill: none; stroke: #000000; stroke-width: 0.8; stroke-linejoin: miter; stroke-linecap: square"/>
   </g>
   <g id="legend_1">
    <g id="patch_7">
     <path d="M 55.982813 117.946875 
L 153.1375 117.946875 
Q 155.1375 117.946875 155.1375 115.946875 
L 155.1375 14.2 
Q 155.1375 12.2 153.1375 12.2 
L 55.982813 12.2 
Q 53.982813 12.2 53.982813 14.2 
L 53.982813 115.946875 
Q 53.982813 117.946875 55.982813 117.946875 
z
" style="fill: #ffffff; opacity: 0.8; stroke: #cccccc; stroke-linejoin: miter"/>
    </g>
    <g id="line2d_23">
     <g>
      <use xlink:href="#m8c5942d020" x="67.982812" y="20.298437" style="fill: #ff0000; stroke: #ff0000"/>
     </g>
    </g>
    <g id="text_18">
     <!-- Training data -->
     <g transform="translate(85.982812 23.798437)scale(0.1 -0.1)">
      <defs>
       <path id="DejaVuSans-54" d="M -19 4666 
L 3928 4666 
L 3928 4134 
L 2272 4134 
L 2272 0 
L 1638 0 
L 1638 4134 
L -19 4134 
L -19 4666 
z
" transform="scale(0.015625)"/>
       <path id="DejaVuSans-72" d="M 2631 2963 
Q 2534 3019 2420 3045 
Q 2306 3072 2169 3072 
Q 1681 3072 1420 2755 
Q 1159 2438 1159 1844 
L 1159 0 
L 581 0 
L 581 3500 
L 1159 3500 
L 1159 2956 
Q 1341 3275 1631 3429 
Q 1922 3584 2338 3584 
Q 2397 3584 2469 3576 
Q 2541 3569 2628 3553 
L 2631 2963 
z
" transform="scale(0.015625)"/>
       <path id="DejaVuSans-61" d="M 2194 1759 
Q 1497 1759 1228 1600 
Q 959 1441 959 1056 
Q 959 750 1161 570 
Q 1363 391 1709 391 
Q 2188 391 2477 730 
Q 2766 1069 2766 1631 
L 2766 1759 
L 2194 1759 
z
M 3341 1997 
L 3341 0 
L 2766 0 
L 2766 531 
Q 2569 213 2275 61 
Q 1981 -91 1556 -91 
Q 1019 -91 701 211 
Q 384 513 384 1019 
Q 384 1609 779 1909 
Q 1175 2209 1959 2209 
L 2766 2209 
L 2766 2266 
Q 2766 2663 2505 2880 
Q 2244 3097 1772 3097 
Q 1472 3097 1187 3025 
Q 903 2953 641 2809 
L 641 3341 
Q 956 3463 1253 3523 
Q 1550 3584 1831 3584 
Q 2591 3584 2966 3190 
Q 3341 2797 3341 1997 
z
" transform="scale(0.015625)"/>
       <path id="DejaVuSans-69" d="M 603 3500 
L 1178 3500 
L 1178 0 
L 603 0 
L 603 3500 
z
M 603 4863 
L 1178 4863 
L 1178 4134 
L 603 4134 
L 603 4863 
z
" transform="scale(0.015625)"/>
       <path id="DejaVuSans-6e" d="M 3513 2113 
L 3513 0 
L 2938 0 
L 2938 2094 
Q 2938 2591 2744 2837 
Q 2550 3084 2163 3084 
Q 1697 3084 1428 2787 
Q 1159 2491 1159 1978 
L 1159 0 
L 581 0 
L 581 3500 
L 1159 3500 
L 1159 2956 
Q 1366 3272 1645 3428 
Q 1925 3584 2291 3584 
Q 2894 3584 3203 3211 
Q 3513 2838 3513 2113 
z
" transform="scale(0.015625)"/>
       <path id="DejaVuSans-67" d="M 2906 1791 
Q 2906 2416 2648 2759 
Q 2391 3103 1925 3103 
Q 1463 3103 1205 2759 
Q 947 2416 947 1791 
Q 947 1169 1205 825 
Q 1463 481 1925 481 
Q 2391 481 2648 825 
Q 2906 1169 2906 1791 
z
M 3481 434 
Q 3481 -459 3084 -895 
Q 2688 -1331 1869 -1331 
Q 1566 -1331 1297 -1286 
Q 1028 -1241 775 -1147 
L 775 -588 
Q 1028 -725 1275 -790 
Q 1522 -856 1778 -856 
Q 2344 -856 2625 -561 
Q 2906 -266 2906 331 
L 2906 616 
Q 2728 306 2450 153 
Q 2172 0 1784 0 
Q 1141 0 747 490 
Q 353 981 353 1791 
Q 353 2603 747 3093 
Q 1141 3584 1784 3584 
Q 2172 3584 2450 3431 
Q 2728 3278 2906 2969 
L 2906 3500 
L 3481 3500 
L 3481 434 
z
" transform="scale(0.015625)"/>
       <path id="DejaVuSans-20" transform="scale(0.015625)"/>
       <path id="DejaVuSans-64" d="M 2906 2969 
L 2906 4863 
L 3481 4863 
L 3481 0 
L 2906 0 
L 2906 525 
Q 2725 213 2448 61 
Q 2172 -91 1784 -91 
Q 1150 -91 751 415 
Q 353 922 353 1747 
Q 353 2572 751 3078 
Q 1150 3584 1784 3584 
Q 2172 3584 2448 3432 
Q 2725 3281 2906 2969 
z
M 947 1747 
Q 947 1113 1208 752 
Q 1469 391 1925 391 
Q 2381 391 2643 752 
Q 2906 1113 2906 1747 
Q 2906 2381 2643 2742 
Q 2381 3103 1925 3103 
Q 1469 3103 1208 2742 
Q 947 2381 947 1747 
z
" transform="scale(0.015625)"/>
       <path id="DejaVuSans-74" d="M 1172 4494 
L 1172 3500 
L 2356 3500 
L 2356 3053 
L 1172 3053 
L 1172 1153 
Q 1172 725 1289 603 
Q 1406 481 1766 481 
L 2356 481 
L 2356 0 
L 1766 0 
Q 1100 0 847 248 
Q 594 497 594 1153 
L 594 3053 
L 172 3053 
L 172 3500 
L 594 3500 
L 594 4494 
L 1172 4494 
z
" transform="scale(0.015625)"/>
      </defs>
      <use xlink:href="#DejaVuSans-54"/>
      <use xlink:href="#DejaVuSans-72" x="46.333984"/>
      <use xlink:href="#DejaVuSans-61" x="87.447266"/>
      <use xlink:href="#DejaVuSans-69" x="148.726562"/>
      <use xlink:href="#DejaVuSans-6e" x="176.509766"/>
      <use xlink:href="#DejaVuSans-69" x="239.888672"/>
      <use xlink:href="#DejaVuSans-6e" x="267.671875"/>
      <use xlink:href="#DejaVuSans-67" x="331.050781"/>
      <use xlink:href="#DejaVuSans-20" x="394.527344"/>
      <use xlink:href="#DejaVuSans-64" x="426.314453"/>
      <use xlink:href="#DejaVuSans-61" x="489.791016"/>
      <use xlink:href="#DejaVuSans-74" x="551.070312"/>
      <use xlink:href="#DejaVuSans-61" x="590.279297"/>
     </g>
    </g>
    <g id="line2d_24">
     <path d="M 57.982813 34.976562 
L 67.982812 34.976562 
L 77.982812 34.976562 
" style="fill: none; stroke: #1f77b4; stroke-width: 2; stroke-linecap: square"/>
    </g>
    <g id="text_19">
     <!-- 2-layer -->
     <g transform="translate(85.982812 38.476562)scale(0.1 -0.1)">
      <defs>
       <path id="DejaVuSans-2d" d="M 313 2009 
L 1997 2009 
L 1997 1497 
L 313 1497 
L 313 2009 
z
" transform="scale(0.015625)"/>
       <path id="DejaVuSans-6c" d="M 603 4863 
L 1178 4863 
L 1178 0 
L 603 0 
L 603 4863 
z
" transform="scale(0.015625)"/>
       <path id="DejaVuSans-65" d="M 3597 1894 
L 3597 1613 
L 953 1613 
Q 991 1019 1311 708 
Q 1631 397 2203 397 
Q 2534 397 2845 478 
Q 3156 559 3463 722 
L 3463 178 
Q 3153 47 2828 -22 
Q 2503 -91 2169 -91 
Q 1331 -91 842 396 
Q 353 884 353 1716 
Q 353 2575 817 3079 
Q 1281 3584 2069 3584 
Q 2775 3584 3186 3129 
Q 3597 2675 3597 1894 
z
M 3022 2063 
Q 3016 2534 2758 2815 
Q 2500 3097 2075 3097 
Q 1594 3097 1305 2825 
Q 1016 2553 972 2059 
L 3022 2063 
z
" transform="scale(0.015625)"/>
      </defs>
      <use xlink:href="#DejaVuSans-32"/>
      <use xlink:href="#DejaVuSans-2d" x="63.623047"/>
      <use xlink:href="#DejaVuSans-6c" x="99.707031"/>
      <use xlink:href="#DejaVuSans-61" x="127.490234"/>
      <use xlink:href="#DejaVuSans-79" x="188.769531"/>
      <use xlink:href="#DejaVuSans-65" x="247.949219"/>
      <use xlink:href="#DejaVuSans-72" x="309.472656"/>
     </g>
    </g>
    <g id="line2d_25">
     <path d="M 57.982813 49.654687 
L 67.982812 49.654687 
L 77.982812 49.654687 
" style="fill: none; stroke: #ff7f0e; stroke-width: 2; stroke-linecap: square"/>
    </g>
    <g id="text_20">
     <!-- 4-layer -->
     <g transform="translate(85.982812 53.154687)scale(0.1 -0.1)">
      <use xlink:href="#DejaVuSans-34"/>
      <use xlink:href="#DejaVuSans-2d" x="63.623047"/>
      <use xlink:href="#DejaVuSans-6c" x="99.707031"/>
      <use xlink:href="#DejaVuSans-61" x="127.490234"/>
      <use xlink:href="#DejaVuSans-79" x="188.769531"/>
      <use xlink:href="#DejaVuSans-65" x="247.949219"/>
      <use xlink:href="#DejaVuSans-72" x="309.472656"/>
     </g>
    </g>
    <g id="line2d_26">
     <path d="M 57.982813 64.332812 
L 67.982812 64.332812 
L 77.982812 64.332812 
" style="fill: none; stroke: #2ca02c; stroke-width: 2; stroke-linecap: square"/>
    </g>
    <g id="text_21">
     <!-- 6-layer -->
     <g transform="translate(85.982812 67.832812)scale(0.1 -0.1)">
      <defs>
       <path id="DejaVuSans-36" d="M 2113 2584 
Q 1688 2584 1439 2293 
Q 1191 2003 1191 1497 
Q 1191 994 1439 701 
Q 1688 409 2113 409 
Q 2538 409 2786 701 
Q 3034 994 3034 1497 
Q 3034 2003 2786 2293 
Q 2538 2584 2113 2584 
z
M 3366 4563 
L 3366 3988 
Q 3128 4100 2886 4159 
Q 2644 4219 2406 4219 
Q 1781 4219 1451 3797 
Q 1122 3375 1075 2522 
Q 1259 2794 1537 2939 
Q 1816 3084 2150 3084 
Q 2853 3084 3261 2657 
Q 3669 2231 3669 1497 
Q 3669 778 3244 343 
Q 2819 -91 2113 -91 
Q 1303 -91 875 529 
Q 447 1150 447 2328 
Q 447 3434 972 4092 
Q 1497 4750 2381 4750 
Q 2619 4750 2861 4703 
Q 3103 4656 3366 4563 
z
" transform="scale(0.015625)"/>
      </defs>
      <use xlink:href="#DejaVuSans-36"/>
      <use xlink:href="#DejaVuSans-2d" x="63.623047"/>
      <use xlink:href="#DejaVuSans-6c" x="99.707031"/>
      <use xlink:href="#DejaVuSans-61" x="127.490234"/>
      <use xlink:href="#DejaVuSans-79" x="188.769531"/>
      <use xlink:href="#DejaVuSans-65" x="247.949219"/>
      <use xlink:href="#DejaVuSans-72" x="309.472656"/>
     </g>
    </g>
    <g id="line2d_27">
     <path d="M 57.982813 79.010937 
L 67.982812 79.010937 
L 77.982812 79.010937 
" style="fill: none; stroke: #d62728; stroke-width: 2; stroke-linecap: square"/>
    </g>
    <g id="text_22">
     <!-- 8-layer -->
     <g transform="translate(85.982812 82.510937)scale(0.1 -0.1)">
      <defs>
       <path id="DejaVuSans-38" d="M 2034 2216 
Q 1584 2216 1326 1975 
Q 1069 1734 1069 1313 
Q 1069 891 1326 650 
Q 1584 409 2034 409 
Q 2484 409 2743 651 
Q 3003 894 3003 1313 
Q 3003 1734 2745 1975 
Q 2488 2216 2034 2216 
z
M 1403 2484 
Q 997 2584 770 2862 
Q 544 3141 544 3541 
Q 544 4100 942 4425 
Q 1341 4750 2034 4750 
Q 2731 4750 3128 4425 
Q 3525 4100 3525 3541 
Q 3525 3141 3298 2862 
Q 3072 2584 2669 2484 
Q 3125 2378 3379 2068 
Q 3634 1759 3634 1313 
Q 3634 634 3220 271 
Q 2806 -91 2034 -91 
Q 1263 -91 848 271 
Q 434 634 434 1313 
Q 434 1759 690 2068 
Q 947 2378 1403 2484 
z
M 1172 3481 
Q 1172 3119 1398 2916 
Q 1625 2713 2034 2713 
Q 2441 2713 2670 2916 
Q 2900 3119 2900 3481 
Q 2900 3844 2670 4047 
Q 2441 4250 2034 4250 
Q 1625 4250 1398 4047 
Q 1172 3844 1172 3481 
z
" transform="scale(0.015625)"/>
      </defs>
      <use xlink:href="#DejaVuSans-38"/>
      <use xlink:href="#DejaVuSans-2d" x="63.623047"/>
      <use xlink:href="#DejaVuSans-6c" x="99.707031"/>
      <use xlink:href="#DejaVuSans-61" x="127.490234"/>
      <use xlink:href="#DejaVuSans-79" x="188.769531"/>
      <use xlink:href="#DejaVuSans-65" x="247.949219"/>
      <use xlink:href="#DejaVuSans-72" x="309.472656"/>
     </g>
    </g>
    <g id="line2d_28">
     <path d="M 57.982813 93.689062 
L 67.982812 93.689062 
L 77.982812 93.689062 
" style="fill: none; stroke: #9467bd; stroke-width: 2; stroke-linecap: square"/>
    </g>
    <g id="text_23">
     <!-- 10-layer -->
     <g transform="translate(85.982812 97.189062)scale(0.1 -0.1)">
      <use xlink:href="#DejaVuSans-31"/>
      <use xlink:href="#DejaVuSans-30" x="63.623047"/>
      <use xlink:href="#DejaVuSans-2d" x="127.246094"/>
      <use xlink:href="#DejaVuSans-6c" x="163.330078"/>
      <use xlink:href="#DejaVuSans-61" x="191.113281"/>
      <use xlink:href="#DejaVuSans-79" x="252.392578"/>
      <use xlink:href="#DejaVuSans-65" x="311.572266"/>
      <use xlink:href="#DejaVuSans-72" x="373.095703"/>
     </g>
    </g>
    <g id="line2d_29">
     <path d="M 57.982813 108.367187 
L 67.982812 108.367187 
L 77.982812 108.367187 
" style="fill: none; stroke-dasharray: 7.4,3.2; stroke-dashoffset: 0; stroke: #bf00bf; stroke-width: 2"/>
    </g>
    <g id="text_24">
     <!-- Complex -->
     <g transform="translate(85.982812 111.867187)scale(0.1 -0.1)">
      <defs>
       <path id="DejaVuSans-43" d="M 4122 4306 
L 4122 3641 
Q 3803 3938 3442 4084 
Q 3081 4231 2675 4231 
Q 1875 4231 1450 3742 
Q 1025 3253 1025 2328 
Q 1025 1406 1450 917 
Q 1875 428 2675 428 
Q 3081 428 3442 575 
Q 3803 722 4122 1019 
L 4122 359 
Q 3791 134 3420 21 
Q 3050 -91 2638 -91 
Q 1578 -91 968 557 
Q 359 1206 359 2328 
Q 359 3453 968 4101 
Q 1578 4750 2638 4750 
Q 3056 4750 3426 4639 
Q 3797 4528 4122 4306 
z
" transform="scale(0.015625)"/>
       <path id="DejaVuSans-6f" d="M 1959 3097 
Q 1497 3097 1228 2736 
Q 959 2375 959 1747 
Q 959 1119 1226 758 
Q 1494 397 1959 397 
Q 2419 397 2687 759 
Q 2956 1122 2956 1747 
Q 2956 2369 2687 2733 
Q 2419 3097 1959 3097 
z
M 1959 3584 
Q 2709 3584 3137 3096 
Q 3566 2609 3566 1747 
Q 3566 888 3137 398 
Q 2709 -91 1959 -91 
Q 1206 -91 779 398 
Q 353 888 353 1747 
Q 353 2609 779 3096 
Q 1206 3584 1959 3584 
z
" transform="scale(0.015625)"/>
       <path id="DejaVuSans-6d" d="M 3328 2828 
Q 3544 3216 3844 3400 
Q 4144 3584 4550 3584 
Q 5097 3584 5394 3201 
Q 5691 2819 5691 2113 
L 5691 0 
L 5113 0 
L 5113 2094 
Q 5113 2597 4934 2840 
Q 4756 3084 4391 3084 
Q 3944 3084 3684 2787 
Q 3425 2491 3425 1978 
L 3425 0 
L 2847 0 
L 2847 2094 
Q 2847 2600 2669 2842 
Q 2491 3084 2119 3084 
Q 1678 3084 1418 2786 
Q 1159 2488 1159 1978 
L 1159 0 
L 581 0 
L 581 3500 
L 1159 3500 
L 1159 2956 
Q 1356 3278 1631 3431 
Q 1906 3584 2284 3584 
Q 2666 3584 2933 3390 
Q 3200 3197 3328 2828 
z
" transform="scale(0.015625)"/>
       <path id="DejaVuSans-70" d="M 1159 525 
L 1159 -1331 
L 581 -1331 
L 581 3500 
L 1159 3500 
L 1159 2969 
Q 1341 3281 1617 3432 
Q 1894 3584 2278 3584 
Q 2916 3584 3314 3078 
Q 3713 2572 3713 1747 
Q 3713 922 3314 415 
Q 2916 -91 2278 -91 
Q 1894 -91 1617 61 
Q 1341 213 1159 525 
z
M 3116 1747 
Q 3116 2381 2855 2742 
Q 2594 3103 2138 3103 
Q 1681 3103 1420 2742 
Q 1159 2381 1159 1747 
Q 1159 1113 1420 752 
Q 1681 391 2138 391 
Q 2594 391 2855 752 
Q 3116 1113 3116 1747 
z
" transform="scale(0.015625)"/>
      </defs>
      <use xlink:href="#DejaVuSans-43"/>
      <use xlink:href="#DejaVuSans-6f" x="69.824219"/>
      <use xlink:href="#DejaVuSans-6d" x="131.005859"/>
      <use xlink:href="#DejaVuSans-70" x="228.417969"/>
      <use xlink:href="#DejaVuSans-6c" x="291.894531"/>
      <use xlink:href="#DejaVuSans-65" x="319.677734"/>
      <use xlink:href="#DejaVuSans-78" x="379.451172"/>
     </g>
    </g>
   </g>
  </g>
 </g>
 <defs>
  <clipPath id="pea7859099f">
   <rect x="48.982813" y="7.2" width="332.01" height="190.26"/>
  </clipPath>
 </defs>
</svg>
