<?xml version="1.0" encoding="utf-8" standalone="no"?>
<!DOCTYPE svg PUBLIC "-//W3C//DTD SVG 1.1//EN"
  "http://www.w3.org/Graphics/SVG/1.1/DTD/svg11.dtd">
<svg xmlns:xlink="http://www.w3.org/1999/xlink" width="388.192813pt" height="235.01625pt" viewBox="0 0 388.192813 235.01625" xmlns="http://www.w3.org/2000/svg" version="1.1">
 <metadata>
  <rdf:RDF xmlns:dc="http://purl.org/dc/elements/1.1/" xmlns:cc="http://creativecommons.org/ns#" xmlns:rdf="http://www.w3.org/1999/02/22-rdf-syntax-ns#">
   <cc:Work>
    <dc:type rdf:resource="http://purl.org/dc/dcmitype/StillImage"/>
    <dc:date>2023-07-17T16:20:36.390136</dc:date>
    <dc:format>image/svg+xml</dc:format>
    <dc:creator>
     <cc:Agent>
      <dc:title>Matplotlib v3.5.1, https://matplotlib.org/</dc:title>
     </cc:Agent>
    </dc:creator>
   </cc:Work>
  </rdf:RDF>
 </metadata>
 <defs>
  <style type="text/css">*{stroke-linejoin: round; stroke-linecap: butt}</style>
 </defs>
 <g id="figure_1">
  <g id="patch_1">
   <path d="M 0 235.01625 
L 388.192813 235.01625 
L 388.192813 0 
L 0 0 
L 0 235.01625 
z
" style="fill: none"/>
  </g>
  <g id="axes_1">
   <g id="patch_2">
    <path d="M 48.982813 197.46 
L 380.992813 197.46 
L 380.992813 7.2 
L 48.982813 7.2 
z
" style="fill: #ffffff"/>
   </g>
   <g id="matplotlib.axis_1">
    <g id="xtick_1">
     <g id="line2d_1">
      <defs>
       <path id="m2dd860edab" d="M 0 0 
L 0 3.5 
" style="stroke: #000000; stroke-width: 0.8"/>
      </defs>
      <g>
       <use xlink:href="#m2dd860edab" x="69.733437" y="197.46" style="stroke: #000000; stroke-width: 0.8"/>
      </g>
     </g>
     <g id="text_1">
      <!-- −3 -->
      <g transform="translate(62.362344 212.058437)scale(0.1 -0.1)">
       <defs>
        <path id="DejaVuSans-2212" d="M 678 2272 
L 4684 2272 
L 4684 1741 
L 678 1741 
L 678 2272 
z
" transform="scale(0.015625)"/>
        <path id="DejaVuSans-33" d="M 2597 2516 
Q 3050 2419 3304 2112 
Q 3559 1806 3559 1356 
Q 3559 666 3084 287 
Q 2609 -91 1734 -91 
Q 1441 -91 1130 -33 
Q 819 25 488 141 
L 488 750 
Q 750 597 1062 519 
Q 1375 441 1716 441 
Q 2309 441 2620 675 
Q 2931 909 2931 1356 
Q 2931 1769 2642 2001 
Q 2353 2234 1838 2234 
L 1294 2234 
L 1294 2753 
L 1863 2753 
Q 2328 2753 2575 2939 
Q 2822 3125 2822 3475 
Q 2822 3834 2567 4026 
Q 2313 4219 1838 4219 
Q 1578 4219 1281 4162 
Q 984 4106 628 3988 
L 628 4550 
Q 988 4650 1302 4700 
Q 1616 4750 1894 4750 
Q 2613 4750 3031 4423 
Q 3450 4097 3450 3541 
Q 3450 3153 3228 2886 
Q 3006 2619 2597 2516 
z
" transform="scale(0.015625)"/>
       </defs>
       <use xlink:href="#DejaVuSans-2212"/>
       <use xlink:href="#DejaVuSans-33" x="83.789062"/>
      </g>
     </g>
    </g>
    <g id="xtick_2">
     <g id="line2d_2">
      <g>
       <use xlink:href="#m2dd860edab" x="111.234687" y="197.46" style="stroke: #000000; stroke-width: 0.8"/>
      </g>
     </g>
     <g id="text_2">
      <!-- −2 -->
      <g transform="translate(103.863594 212.058437)scale(0.1 -0.1)">
       <defs>
        <path id="DejaVuSans-32" d="M 1228 531 
L 3431 531 
L 3431 0 
L 469 0 
L 469 531 
Q 828 903 1448 1529 
Q 2069 2156 2228 2338 
Q 2531 2678 2651 2914 
Q 2772 3150 2772 3378 
Q 2772 3750 2511 3984 
Q 2250 4219 1831 4219 
Q 1534 4219 1204 4116 
Q 875 4013 500 3803 
L 500 4441 
Q 881 4594 1212 4672 
Q 1544 4750 1819 4750 
Q 2544 4750 2975 4387 
Q 3406 4025 3406 3419 
Q 3406 3131 3298 2873 
Q 3191 2616 2906 2266 
Q 2828 2175 2409 1742 
Q 1991 1309 1228 531 
z
" transform="scale(0.015625)"/>
       </defs>
       <use xlink:href="#DejaVuSans-2212"/>
       <use xlink:href="#DejaVuSans-32" x="83.789062"/>
      </g>
     </g>
    </g>
    <g id="xtick_3">
     <g id="line2d_3">
      <g>
       <use xlink:href="#m2dd860edab" x="152.735938" y="197.46" style="stroke: #000000; stroke-width: 0.8"/>
      </g>
     </g>
     <g id="text_3">
      <!-- −1 -->
      <g transform="translate(145.364844 212.058437)scale(0.1 -0.1)">
       <defs>
        <path id="DejaVuSans-31" d="M 794 531 
L 1825 531 
L 1825 4091 
L 703 3866 
L 703 4441 
L 1819 4666 
L 2450 4666 
L 2450 531 
L 3481 531 
L 3481 0 
L 794 0 
L 794 531 
z
" transform="scale(0.015625)"/>
       </defs>
       <use xlink:href="#DejaVuSans-2212"/>
       <use xlink:href="#DejaVuSans-31" x="83.789062"/>
      </g>
     </g>
    </g>
    <g id="xtick_4">
     <g id="line2d_4">
      <g>
       <use xlink:href="#m2dd860edab" x="194.237188" y="197.46" style="stroke: #000000; stroke-width: 0.8"/>
      </g>
     </g>
     <g id="text_4">
      <!-- 0 -->
      <g transform="translate(191.055937 212.058437)scale(0.1 -0.1)">
       <defs>
        <path id="DejaVuSans-30" d="M 2034 4250 
Q 1547 4250 1301 3770 
Q 1056 3291 1056 2328 
Q 1056 1369 1301 889 
Q 1547 409 2034 409 
Q 2525 409 2770 889 
Q 3016 1369 3016 2328 
Q 3016 3291 2770 3770 
Q 2525 4250 2034 4250 
z
M 2034 4750 
Q 2819 4750 3233 4129 
Q 3647 3509 3647 2328 
Q 3647 1150 3233 529 
Q 2819 -91 2034 -91 
Q 1250 -91 836 529 
Q 422 1150 422 2328 
Q 422 3509 836 4129 
Q 1250 4750 2034 4750 
z
" transform="scale(0.015625)"/>
       </defs>
       <use xlink:href="#DejaVuSans-30"/>
      </g>
     </g>
    </g>
    <g id="xtick_5">
     <g id="line2d_5">
      <g>
       <use xlink:href="#m2dd860edab" x="235.738438" y="197.46" style="stroke: #000000; stroke-width: 0.8"/>
      </g>
     </g>
     <g id="text_5">
      <!-- 1 -->
      <g transform="translate(232.557187 212.058437)scale(0.1 -0.1)">
       <use xlink:href="#DejaVuSans-31"/>
      </g>
     </g>
    </g>
    <g id="xtick_6">
     <g id="line2d_6">
      <g>
       <use xlink:href="#m2dd860edab" x="277.239688" y="197.46" style="stroke: #000000; stroke-width: 0.8"/>
      </g>
     </g>
     <g id="text_6">
      <!-- 2 -->
      <g transform="translate(274.058438 212.058437)scale(0.1 -0.1)">
       <use xlink:href="#DejaVuSans-32"/>
      </g>
     </g>
    </g>
    <g id="xtick_7">
     <g id="line2d_7">
      <g>
       <use xlink:href="#m2dd860edab" x="318.740938" y="197.46" style="stroke: #000000; stroke-width: 0.8"/>
      </g>
     </g>
     <g id="text_7">
      <!-- 3 -->
      <g transform="translate(315.559688 212.058437)scale(0.1 -0.1)">
       <use xlink:href="#DejaVuSans-33"/>
      </g>
     </g>
    </g>
    <g id="xtick_8">
     <g id="line2d_8">
      <g>
       <use xlink:href="#m2dd860edab" x="360.242188" y="197.46" style="stroke: #000000; stroke-width: 0.8"/>
      </g>
     </g>
     <g id="text_8">
      <!-- 4 -->
      <g transform="translate(357.060938 212.058437)scale(0.1 -0.1)">
       <defs>
        <path id="DejaVuSans-34" d="M 2419 4116 
L 825 1625 
L 2419 1625 
L 2419 4116 
z
M 2253 4666 
L 3047 4666 
L 3047 1625 
L 3713 1625 
L 3713 1100 
L 3047 1100 
L 3047 0 
L 2419 0 
L 2419 1100 
L 313 1100 
L 313 1709 
L 2253 4666 
z
" transform="scale(0.015625)"/>
       </defs>
       <use xlink:href="#DejaVuSans-34"/>
      </g>
     </g>
    </g>
    <g id="text_9">
     <!-- x -->
     <g transform="translate(212.028438 225.736562)scale(0.1 -0.1)">
      <defs>
       <path id="DejaVuSans-78" d="M 3513 3500 
L 2247 1797 
L 3578 0 
L 2900 0 
L 1881 1375 
L 863 0 
L 184 0 
L 1544 1831 
L 300 3500 
L 978 3500 
L 1906 2253 
L 2834 3500 
L 3513 3500 
z
" transform="scale(0.015625)"/>
      </defs>
      <use xlink:href="#DejaVuSans-78"/>
     </g>
    </g>
   </g>
   <g id="matplotlib.axis_2">
    <g id="ytick_1">
     <g id="line2d_9">
      <defs>
       <path id="mfefb504ec1" d="M 0 0 
L -3.5 0 
" style="stroke: #000000; stroke-width: 0.8"/>
      </defs>
      <g>
       <use xlink:href="#mfefb504ec1" x="48.982813" y="192.36375" style="stroke: #000000; stroke-width: 0.8"/>
      </g>
     </g>
     <g id="text_10">
      <!-- −25 -->
      <g transform="translate(20.878125 196.162969)scale(0.1 -0.1)">
       <defs>
        <path id="DejaVuSans-35" d="M 691 4666 
L 3169 4666 
L 3169 4134 
L 1269 4134 
L 1269 2991 
Q 1406 3038 1543 3061 
Q 1681 3084 1819 3084 
Q 2600 3084 3056 2656 
Q 3513 2228 3513 1497 
Q 3513 744 3044 326 
Q 2575 -91 1722 -91 
Q 1428 -91 1123 -41 
Q 819 9 494 109 
L 494 744 
Q 775 591 1075 516 
Q 1375 441 1709 441 
Q 2250 441 2565 725 
Q 2881 1009 2881 1497 
Q 2881 1984 2565 2268 
Q 2250 2553 1709 2553 
Q 1456 2553 1204 2497 
Q 953 2441 691 2322 
L 691 4666 
z
" transform="scale(0.015625)"/>
       </defs>
       <use xlink:href="#DejaVuSans-2212"/>
       <use xlink:href="#DejaVuSans-32" x="83.789062"/>
       <use xlink:href="#DejaVuSans-35" x="147.412109"/>
      </g>
     </g>
    </g>
    <g id="ytick_2">
     <g id="line2d_10">
      <g>
       <use xlink:href="#mfefb504ec1" x="48.982813" y="171.129375" style="stroke: #000000; stroke-width: 0.8"/>
      </g>
     </g>
     <g id="text_11">
      <!-- 0 -->
      <g transform="translate(35.620312 174.928594)scale(0.1 -0.1)">
       <use xlink:href="#DejaVuSans-30"/>
      </g>
     </g>
    </g>
    <g id="ytick_3">
     <g id="line2d_11">
      <g>
       <use xlink:href="#mfefb504ec1" x="48.982813" y="149.895" style="stroke: #000000; stroke-width: 0.8"/>
      </g>
     </g>
     <g id="text_12">
      <!-- 25 -->
      <g transform="translate(29.257812 153.694219)scale(0.1 -0.1)">
       <use xlink:href="#DejaVuSans-32"/>
       <use xlink:href="#DejaVuSans-35" x="63.623047"/>
      </g>
     </g>
    </g>
    <g id="ytick_4">
     <g id="line2d_12">
      <g>
       <use xlink:href="#mfefb504ec1" x="48.982813" y="128.660625" style="stroke: #000000; stroke-width: 0.8"/>
      </g>
     </g>
     <g id="text_13">
      <!-- 50 -->
      <g transform="translate(29.257812 132.459844)scale(0.1 -0.1)">
       <use xlink:href="#DejaVuSans-35"/>
       <use xlink:href="#DejaVuSans-30" x="63.623047"/>
      </g>
     </g>
    </g>
    <g id="ytick_5">
     <g id="line2d_13">
      <g>
       <use xlink:href="#mfefb504ec1" x="48.982813" y="107.42625" style="stroke: #000000; stroke-width: 0.8"/>
      </g>
     </g>
     <g id="text_14">
      <!-- 75 -->
      <g transform="translate(29.257812 111.225469)scale(0.1 -0.1)">
       <defs>
        <path id="DejaVuSans-37" d="M 525 4666 
L 3525 4666 
L 3525 4397 
L 1831 0 
L 1172 0 
L 2766 4134 
L 525 4134 
L 525 4666 
z
" transform="scale(0.015625)"/>
       </defs>
       <use xlink:href="#DejaVuSans-37"/>
       <use xlink:href="#DejaVuSans-35" x="63.623047"/>
      </g>
     </g>
    </g>
    <g id="ytick_6">
     <g id="line2d_14">
      <g>
       <use xlink:href="#mfefb504ec1" x="48.982813" y="86.191875" style="stroke: #000000; stroke-width: 0.8"/>
      </g>
     </g>
     <g id="text_15">
      <!-- 100 -->
      <g transform="translate(22.895312 89.991094)scale(0.1 -0.1)">
       <use xlink:href="#DejaVuSans-31"/>
       <use xlink:href="#DejaVuSans-30" x="63.623047"/>
       <use xlink:href="#DejaVuSans-30" x="127.246094"/>
      </g>
     </g>
    </g>
    <g id="ytick_7">
     <g id="line2d_15">
      <g>
       <use xlink:href="#mfefb504ec1" x="48.982813" y="64.9575" style="stroke: #000000; stroke-width: 0.8"/>
      </g>
     </g>
     <g id="text_16">
      <!-- 125 -->
      <g transform="translate(22.895312 68.756719)scale(0.1 -0.1)">
       <use xlink:href="#DejaVuSans-31"/>
       <use xlink:href="#DejaVuSans-32" x="63.623047"/>
       <use xlink:href="#DejaVuSans-35" x="127.246094"/>
      </g>
     </g>
    </g>
    <g id="ytick_8">
     <g id="line2d_16">
      <g>
       <use xlink:href="#mfefb504ec1" x="48.982813" y="43.723125" style="stroke: #000000; stroke-width: 0.8"/>
      </g>
     </g>
     <g id="text_17">
      <!-- 150 -->
      <g transform="translate(22.895312 47.522344)scale(0.1 -0.1)">
       <use xlink:href="#DejaVuSans-31"/>
       <use xlink:href="#DejaVuSans-35" x="63.623047"/>
       <use xlink:href="#DejaVuSans-30" x="127.246094"/>
      </g>
     </g>
    </g>
    <g id="ytick_9">
     <g id="line2d_17">
      <g>
       <use xlink:href="#mfefb504ec1" x="48.982813" y="22.48875" style="stroke: #000000; stroke-width: 0.8"/>
      </g>
     </g>
     <g id="text_18">
      <!-- 175 -->
      <g transform="translate(22.895312 26.287969)scale(0.1 -0.1)">
       <use xlink:href="#DejaVuSans-31"/>
       <use xlink:href="#DejaVuSans-37" x="63.623047"/>
       <use xlink:href="#DejaVuSans-35" x="127.246094"/>
      </g>
     </g>
    </g>
    <g id="text_19">
     <!-- y -->
     <g transform="translate(14.798438 105.289375)rotate(-90)scale(0.1 -0.1)">
      <defs>
       <path id="DejaVuSans-79" d="M 2059 -325 
Q 1816 -950 1584 -1140 
Q 1353 -1331 966 -1331 
L 506 -1331 
L 506 -850 
L 844 -850 
Q 1081 -850 1212 -737 
Q 1344 -625 1503 -206 
L 1606 56 
L 191 3500 
L 800 3500 
L 1894 763 
L 2988 3500 
L 3597 3500 
L 2059 -325 
z
" transform="scale(0.015625)"/>
      </defs>
      <use xlink:href="#DejaVuSans-79"/>
     </g>
    </g>
   </g>
   <g id="line2d_18">
    <defs>
     <path id="m209a124069" d="M 0 3 
C 0.795609 3 1.55874 2.683901 2.12132 2.12132 
C 2.683901 1.55874 3 0.795609 3 0 
C 3 -0.795609 2.683901 -1.55874 2.12132 -2.12132 
C 1.55874 -2.683901 0.795609 -3 0 -3 
C -0.795609 -3 -1.55874 -2.683901 -2.12132 -2.12132 
C -2.683901 -1.55874 -3 -0.795609 -3 0 
C -3 0.795609 -2.683901 1.55874 -2.12132 2.12132 
C -1.55874 2.683901 -0.795609 3 0 3 
z
" style="stroke: #ff0000"/>
    </defs>
    <g clip-path="url(#p75fe31cca5)">
     <use xlink:href="#m209a124069" x="111.234687" y="186.418125" style="fill: #ff0000; stroke: #ff0000"/>
     <use xlink:href="#m209a124069" x="173.486562" y="171.129375" style="fill: #ff0000; stroke: #ff0000"/>
     <use xlink:href="#m209a124069" x="235.738438" y="173.6775" style="fill: #ff0000; stroke: #ff0000"/>
     <use xlink:href="#m209a124069" x="297.990313" y="175.37625" style="fill: #ff0000; stroke: #ff0000"/>
     <use xlink:href="#m209a124069" x="360.242188" y="160.936875" style="fill: #ff0000; stroke: #ff0000"/>
    </g>
   </g>
   <g id="line2d_19">
    <path d="M 111.234687 186.418127 
L 115.384813 184.41935 
L 119.534939 182.589733 
L 123.685061 180.922331 
L 127.835187 179.410261 
L 131.985312 178.046713 
L 136.135438 176.824945 
L 140.285564 175.738275 
L 144.435686 174.780097 
L 148.585812 173.943864 
L 152.735938 173.223102 
L 156.886061 172.611401 
L 161.036185 172.102419 
L 165.186311 171.689881 
L 169.336437 171.367579 
L 173.48656 171.129374 
L 177.636687 170.96919 
L 181.786812 170.881023 
L 185.936937 170.858932 
L 190.087062 170.897045 
L 194.237187 170.989558 
L 198.387312 171.130732 
L 202.537437 171.314896 
L 206.687562 171.536446 
L 210.837688 171.789847 
L 214.987813 172.069627 
L 219.137938 172.370386 
L 223.288062 172.686787 
L 227.438188 173.013562 
L 231.588312 173.345511 
L 235.738438 173.677498 
L 239.888563 174.004459 
L 244.038689 174.321391 
L 248.188815 174.623363 
L 252.338941 174.90551 
L 256.489063 175.163032 
L 260.639188 175.391199 
L 264.789314 175.585346 
L 268.93944 175.740877 
L 273.089566 175.85326 
L 277.239688 175.918034 
L 281.389809 175.930802 
L 285.539939 175.887236 
L 289.690061 175.783073 
L 293.840191 175.614123 
L 297.990313 175.376252 
L 302.140434 175.065405 
L 306.290564 174.677587 
L 310.440686 174.208873 
L 314.590816 173.655402 
L 318.740938 173.013383 
L 322.891059 172.279093 
L 327.041189 171.448869 
L 331.191311 170.519133 
L 335.341441 169.486345 
L 339.491562 168.347065 
L 343.641684 167.097889 
L 347.791814 165.735502 
L 351.941936 164.256658 
L 356.092066 162.65815 
L 360.242188 160.936874 
" clip-path="url(#p75fe31cca5)" style="fill: none; stroke-dasharray: 7.4,3.2; stroke-dashoffset: 0; stroke: #1f77b4; stroke-width: 2"/>
   </g>
   <g id="line2d_20">
    <path d="M 111.234687 186.418128 
L 115.384813 183.726529 
L 119.534939 181.396242 
L 123.685061 179.392717 
L 127.835187 177.683671 
L 131.985312 176.239022 
L 136.135438 175.03081 
L 140.285564 174.033108 
L 144.435686 173.221953 
L 148.585812 172.575261 
L 152.735938 172.072752 
L 156.886061 171.69587 
L 161.036185 171.427701 
L 165.186311 171.252901 
L 169.336437 171.157609 
L 173.48656 171.129375 
L 177.636687 171.157076 
L 181.786812 171.230841 
L 185.936937 171.34197 
L 190.087062 171.482855 
L 194.237187 171.646903 
L 198.387312 171.828453 
L 202.537437 172.022704 
L 206.687562 172.225628 
L 210.837688 172.433898 
L 214.987813 172.644805 
L 219.137938 172.85618 
L 223.288062 173.066318 
L 227.438188 173.273893 
L 231.588312 173.477886 
L 235.738438 173.6775 
L 239.888563 173.872087 
L 244.038689 174.061063 
L 248.188815 174.243835 
L 252.338941 174.419717 
L 256.489063 174.587855 
L 260.639188 174.747147 
L 264.789314 174.896164 
L 268.93944 175.033067 
L 273.089566 175.155535 
L 277.239688 175.260684 
L 281.389809 175.344988 
L 285.539939 175.404191 
L 289.690061 175.433248 
L 293.840191 175.426227 
L 297.990313 175.37624 
L 302.140434 175.275363 
L 306.290564 175.114553 
L 310.440686 174.883579 
L 314.590816 174.570921 
L 318.740938 174.163724 
L 322.891059 173.647678 
L 327.041189 173.007005 
L 331.191311 172.224285 
L 335.341441 171.280474 
L 339.491562 170.15475 
L 343.641684 168.824478 
L 347.791814 167.265111 
L 351.941936 165.450158 
L 356.092066 163.350989 
L 360.242188 160.936888 
" clip-path="url(#p75fe31cca5)" style="fill: none; stroke-dasharray: 7.4,3.2; stroke-dashoffset: 0; stroke: #ff7f0e; stroke-width: 2"/>
   </g>
   <g id="line2d_21">
    <path d="M 111.234687 186.418119 
L 115.384813 182.612313 
L 119.534939 179.589106 
L 123.685061 177.220517 
L 127.835187 175.39415 
L 131.985312 174.011994 
L 136.135438 172.989241 
L 140.285564 172.253165 
L 144.435686 171.742041 
L 148.585812 171.404105 
L 152.735938 171.196565 
L 156.886061 171.084652 
L 161.036185 171.040717 
L 165.186311 171.043373 
L 169.336437 171.07668 
L 173.48656 171.129375 
L 177.636687 171.194148 
L 181.786812 171.26696 
L 185.936937 171.346409 
L 190.087062 171.433137 
L 194.237187 171.529284 
L 198.387312 171.637982 
L 202.537437 171.762903 
L 206.687562 171.907839 
L 210.837688 172.07634 
L 214.987813 172.271383 
L 219.137938 172.495095 
L 223.288062 172.748519 
L 227.438188 173.03142 
L 231.588312 173.342141 
L 235.738438 173.6775 
L 239.888563 174.032734 
L 244.038689 174.401483 
L 248.188815 174.775825 
L 252.338941 175.146351 
L 256.489063 175.502287 
L 260.639188 175.831656 
L 264.789314 176.12149 
L 268.93944 176.358085 
L 273.089566 176.527299 
L 277.239688 176.614891 
L 281.389809 176.606921 
L 285.539939 176.490165 
L 289.690061 176.252611 
L 293.840191 175.883962 
L 297.990313 175.376216 
L 302.140434 174.724266 
L 306.290564 173.926564 
L 310.440686 172.985815 
L 314.590816 171.909716 
L 318.740938 170.71177 
L 322.891059 169.412072 
L 327.041189 168.038234 
L 331.191311 166.626279 
L 335.341441 165.22162 
L 339.491562 163.880073 
L 343.641684 162.668881 
L 347.791814 161.667869 
L 351.941936 160.970598 
L 356.092066 160.685365 
L 360.242188 160.936719 
" clip-path="url(#p75fe31cca5)" style="fill: none; stroke-dasharray: 7.4,3.2; stroke-dashoffset: 0; stroke: #2ca02c; stroke-width: 2"/>
   </g>
   <g id="line2d_22">
    <path d="M 111.234687 186.418112 
L 115.384813 183.015726 
L 119.534939 180.217677 
L 123.685061 177.94603 
L 127.835187 176.128322 
L 131.985312 174.697791 
L 136.135438 173.593503 
L 140.285564 172.760417 
L 144.435686 172.14937 
L 148.585812 171.716991 
L 152.735938 171.42557 
L 156.886061 171.242847 
L 161.036185 171.141767 
L 165.186311 171.100181 
L 169.336437 171.100511 
L 173.48656 171.129375 
L 177.636687 171.17719 
L 181.786812 171.23774 
L 185.936937 171.307739 
L 190.087062 171.386363 
L 194.237187 171.474795 
L 198.387312 171.575747 
L 202.537437 171.692997 
L 206.687562 171.830935 
L 210.837688 171.994114 
L 214.987813 172.186824 
L 219.137938 172.412698 
L 223.288062 172.67433 
L 227.438188 172.972951 
L 231.588312 173.308124 
L 235.738438 173.6775 
L 239.888563 174.076615 
L 244.038689 174.498757 
L 248.188815 174.934875 
L 252.338941 175.373579 
L 256.489063 175.801193 
L 260.639188 176.201902 
L 264.789314 176.557964 
L 268.93944 176.850034 
L 273.089566 177.057569 
L 277.239688 177.159326 
L 281.389809 177.133989 
L 285.539939 176.960879 
L 289.690061 176.620795 
L 293.840191 176.096989 
L 297.990313 175.376237 
L 302.140434 174.450065 
L 306.290564 173.316098 
L 310.440686 171.979602 
L 314.590816 170.455044 
L 318.740938 168.76801 
L 322.891059 166.957074 
L 327.041189 165.076003 
L 331.191311 163.195937 
L 335.341441 161.408026 
L 339.491562 159.825945 
L 343.641684 158.588794 
L 347.791814 157.864138 
L 351.941936 157.851203 
L 356.092066 158.784289 
L 360.242188 160.936538 
" clip-path="url(#p75fe31cca5)" style="fill: none; stroke-dasharray: 7.4,3.2; stroke-dashoffset: 0; stroke: #d62728; stroke-width: 2"/>
   </g>
   <g id="line2d_23">
    <path d="M 111.234687 186.418148 
L 115.384813 180.645547 
L 119.534939 176.737678 
L 123.685061 174.176519 
L 127.835187 172.56556 
L 131.985312 171.606743 
L 136.135438 171.08069 
L 140.285564 170.829926 
L 144.435686 170.744792 
L 148.585812 170.751766 
L 152.735938 170.803932 
L 156.886061 170.873325 
L 161.036185 170.944935 
L 165.186311 171.012126 
L 169.336437 171.073266 
L 173.48656 171.129375 
L 177.636687 171.182598 
L 181.786812 171.235344 
L 185.936937 171.28993 
L 190.087062 171.348589 
L 194.237187 171.413726 
L 198.387312 171.488294 
L 202.537437 171.576205 
L 206.687562 171.682684 
L 210.837688 171.814507 
L 214.987813 171.980054 
L 219.137938 172.189142 
L 223.288062 172.452622 
L 227.438188 172.781702 
L 231.588312 173.187025 
L 235.738438 173.6775 
L 239.888563 174.258918 
L 244.038689 174.932405 
L 248.188815 175.692759 
L 252.338941 176.526758 
L 256.489063 177.411507 
L 260.639188 178.312941 
L 264.789314 179.184589 
L 268.93944 179.966733 
L 273.089566 180.586105 
L 277.239688 180.95627 
L 281.389809 180.978895 
L 285.539939 180.546041 
L 289.690061 179.543725 
L 293.840191 177.856952 
L 297.990313 175.376435 
L 302.140434 172.00725 
L 306.290564 167.679631 
L 310.440686 162.362419 
L 314.590816 156.078941 
L 318.740938 148.926311 
L 322.891059 141.09782 
L 327.041189 132.9089 
L 331.191311 124.827758 
L 335.341441 117.509779 
L 339.491562 111.836323 
L 343.641684 108.960247 
L 347.791814 110.355204 
L 351.941936 117.871738 
L 356.092066 133.7998 
L 360.242188 160.937497 
" clip-path="url(#p75fe31cca5)" style="fill: none; stroke-dasharray: 7.4,3.2; stroke-dashoffset: 0; stroke: #9467bd; stroke-width: 2"/>
   </g>
   <g id="line2d_24">
    <path d="M 111.234687 186.418128 
L 115.384813 183.010229 
L 119.534939 180.04728 
L 123.685061 177.588988 
L 127.835187 175.631957 
L 131.985312 174.133962 
L 136.135438 173.031986 
L 140.285564 172.255148 
L 144.435686 171.733495 
L 148.585812 171.403515 
L 152.735938 171.21114 
L 156.886061 171.112869 
L 161.036185 171.075587 
L 165.186311 171.075521 
L 169.336437 171.096724 
L 173.48656 171.129375 
L 177.636687 171.168137 
L 181.786812 171.21072 
L 185.936937 171.256765 
L 190.087062 171.307105 
L 194.237187 171.363389 
L 198.387312 171.428075 
L 202.537437 171.50469 
L 206.687562 171.598297 
L 210.837688 171.716047 
L 214.987813 171.867707 
L 219.137938 172.066017 
L 223.288062 172.326781 
L 227.438188 172.66855 
L 231.588312 173.111795 
L 235.738438 173.6775 
L 239.888563 174.385101 
L 244.038689 175.249754 
L 248.188815 176.278947 
L 252.338941 177.468516 
L 256.489063 178.798178 
L 260.639188 180.226764 
L 264.789314 181.687366 
L 268.93944 183.082753 
L 273.089566 184.281405 
L 277.239688 185.114665 
L 281.389809 185.375571 
L 285.539939 184.820037 
L 289.690061 183.171151 
L 293.840191 180.127454 
L 297.990313 175.376341 
L 302.140434 168.613431 
L 306.290564 159.569355 
L 310.440686 148.045533 
L 314.590816 133.960017 
L 318.740938 117.405473 
L 322.891059 98.721297 
L 327.041189 78.580575 
L 331.191311 58.09705 
L 335.341441 38.950264 
L 339.491562 23.53559 
L 343.641684 15.138266 
L 347.791814 18.138295 
L 351.941936 38.243039 
L 356.092066 82.762959 
L 360.242188 160.911991 
" clip-path="url(#p75fe31cca5)" style="fill: none; stroke-dasharray: 7.4,3.2; stroke-dashoffset: 0; stroke: #8c564b; stroke-width: 2"/>
   </g>
   <g id="patch_3">
    <path d="M 48.982813 197.46 
L 48.982813 7.2 
" style="fill: none; stroke: #000000; stroke-width: 0.8; stroke-linejoin: miter; stroke-linecap: square"/>
   </g>
   <g id="patch_4">
    <path d="M 380.992813 197.46 
L 380.992813 7.2 
" style="fill: none; stroke: #000000; stroke-width: 0.8; stroke-linejoin: miter; stroke-linecap: square"/>
   </g>
   <g id="patch_5">
    <path d="M 48.982812 197.46 
L 380.992813 197.46 
" style="fill: none; stroke: #000000; stroke-width: 0.8; stroke-linejoin: miter; stroke-linecap: square"/>
   </g>
   <g id="patch_6">
    <path d="M 48.982812 7.2 
L 380.992813 7.2 
" style="fill: none; stroke: #000000; stroke-width: 0.8; stroke-linejoin: miter; stroke-linecap: square"/>
   </g>
   <g id="legend_1">
    <g id="patch_7">
     <path d="M 55.982813 117.946875 
L 153.1375 117.946875 
Q 155.1375 117.946875 155.1375 115.946875 
L 155.1375 14.2 
Q 155.1375 12.2 153.1375 12.2 
L 55.982813 12.2 
Q 53.982813 12.2 53.982813 14.2 
L 53.982813 115.946875 
Q 53.982813 117.946875 55.982813 117.946875 
z
" style="fill: #ffffff; opacity: 0.8; stroke: #cccccc; stroke-linejoin: miter"/>
    </g>
    <g id="line2d_25">
     <g>
      <use xlink:href="#m209a124069" x="67.982812" y="20.298437" style="fill: #ff0000; stroke: #ff0000"/>
     </g>
    </g>
    <g id="text_20">
     <!-- Training data -->
     <g transform="translate(85.982812 23.798437)scale(0.1 -0.1)">
      <defs>
       <path id="DejaVuSans-54" d="M -19 4666 
L 3928 4666 
L 3928 4134 
L 2272 4134 
L 2272 0 
L 1638 0 
L 1638 4134 
L -19 4134 
L -19 4666 
z
" transform="scale(0.015625)"/>
       <path id="DejaVuSans-72" d="M 2631 2963 
Q 2534 3019 2420 3045 
Q 2306 3072 2169 3072 
Q 1681 3072 1420 2755 
Q 1159 2438 1159 1844 
L 1159 0 
L 581 0 
L 581 3500 
L 1159 3500 
L 1159 2956 
Q 1341 3275 1631 3429 
Q 1922 3584 2338 3584 
Q 2397 3584 2469 3576 
Q 2541 3569 2628 3553 
L 2631 2963 
z
" transform="scale(0.015625)"/>
       <path id="DejaVuSans-61" d="M 2194 1759 
Q 1497 1759 1228 1600 
Q 959 1441 959 1056 
Q 959 750 1161 570 
Q 1363 391 1709 391 
Q 2188 391 2477 730 
Q 2766 1069 2766 1631 
L 2766 1759 
L 2194 1759 
z
M 3341 1997 
L 3341 0 
L 2766 0 
L 2766 531 
Q 2569 213 2275 61 
Q 1981 -91 1556 -91 
Q 1019 -91 701 211 
Q 384 513 384 1019 
Q 384 1609 779 1909 
Q 1175 2209 1959 2209 
L 2766 2209 
L 2766 2266 
Q 2766 2663 2505 2880 
Q 2244 3097 1772 3097 
Q 1472 3097 1187 3025 
Q 903 2953 641 2809 
L 641 3341 
Q 956 3463 1253 3523 
Q 1550 3584 1831 3584 
Q 2591 3584 2966 3190 
Q 3341 2797 3341 1997 
z
" transform="scale(0.015625)"/>
       <path id="DejaVuSans-69" d="M 603 3500 
L 1178 3500 
L 1178 0 
L 603 0 
L 603 3500 
z
M 603 4863 
L 1178 4863 
L 1178 4134 
L 603 4134 
L 603 4863 
z
" transform="scale(0.015625)"/>
       <path id="DejaVuSans-6e" d="M 3513 2113 
L 3513 0 
L 2938 0 
L 2938 2094 
Q 2938 2591 2744 2837 
Q 2550 3084 2163 3084 
Q 1697 3084 1428 2787 
Q 1159 2491 1159 1978 
L 1159 0 
L 581 0 
L 581 3500 
L 1159 3500 
L 1159 2956 
Q 1366 3272 1645 3428 
Q 1925 3584 2291 3584 
Q 2894 3584 3203 3211 
Q 3513 2838 3513 2113 
z
" transform="scale(0.015625)"/>
       <path id="DejaVuSans-67" d="M 2906 1791 
Q 2906 2416 2648 2759 
Q 2391 3103 1925 3103 
Q 1463 3103 1205 2759 
Q 947 2416 947 1791 
Q 947 1169 1205 825 
Q 1463 481 1925 481 
Q 2391 481 2648 825 
Q 2906 1169 2906 1791 
z
M 3481 434 
Q 3481 -459 3084 -895 
Q 2688 -1331 1869 -1331 
Q 1566 -1331 1297 -1286 
Q 1028 -1241 775 -1147 
L 775 -588 
Q 1028 -725 1275 -790 
Q 1522 -856 1778 -856 
Q 2344 -856 2625 -561 
Q 2906 -266 2906 331 
L 2906 616 
Q 2728 306 2450 153 
Q 2172 0 1784 0 
Q 1141 0 747 490 
Q 353 981 353 1791 
Q 353 2603 747 3093 
Q 1141 3584 1784 3584 
Q 2172 3584 2450 3431 
Q 2728 3278 2906 2969 
L 2906 3500 
L 3481 3500 
L 3481 434 
z
" transform="scale(0.015625)"/>
       <path id="DejaVuSans-20" transform="scale(0.015625)"/>
       <path id="DejaVuSans-64" d="M 2906 2969 
L 2906 4863 
L 3481 4863 
L 3481 0 
L 2906 0 
L 2906 525 
Q 2725 213 2448 61 
Q 2172 -91 1784 -91 
Q 1150 -91 751 415 
Q 353 922 353 1747 
Q 353 2572 751 3078 
Q 1150 3584 1784 3584 
Q 2172 3584 2448 3432 
Q 2725 3281 2906 2969 
z
M 947 1747 
Q 947 1113 1208 752 
Q 1469 391 1925 391 
Q 2381 391 2643 752 
Q 2906 1113 2906 1747 
Q 2906 2381 2643 2742 
Q 2381 3103 1925 3103 
Q 1469 3103 1208 2742 
Q 947 2381 947 1747 
z
" transform="scale(0.015625)"/>
       <path id="DejaVuSans-74" d="M 1172 4494 
L 1172 3500 
L 2356 3500 
L 2356 3053 
L 1172 3053 
L 1172 1153 
Q 1172 725 1289 603 
Q 1406 481 1766 481 
L 2356 481 
L 2356 0 
L 1766 0 
Q 1100 0 847 248 
Q 594 497 594 1153 
L 594 3053 
L 172 3053 
L 172 3500 
L 594 3500 
L 594 4494 
L 1172 4494 
z
" transform="scale(0.015625)"/>
      </defs>
      <use xlink:href="#DejaVuSans-54"/>
      <use xlink:href="#DejaVuSans-72" x="46.333984"/>
      <use xlink:href="#DejaVuSans-61" x="87.447266"/>
      <use xlink:href="#DejaVuSans-69" x="148.726562"/>
      <use xlink:href="#DejaVuSans-6e" x="176.509766"/>
      <use xlink:href="#DejaVuSans-69" x="239.888672"/>
      <use xlink:href="#DejaVuSans-6e" x="267.671875"/>
      <use xlink:href="#DejaVuSans-67" x="331.050781"/>
      <use xlink:href="#DejaVuSans-20" x="394.527344"/>
      <use xlink:href="#DejaVuSans-64" x="426.314453"/>
      <use xlink:href="#DejaVuSans-61" x="489.791016"/>
      <use xlink:href="#DejaVuSans-74" x="551.070312"/>
      <use xlink:href="#DejaVuSans-61" x="590.279297"/>
     </g>
    </g>
    <g id="line2d_26">
     <path d="M 57.982813 34.976562 
L 67.982812 34.976562 
L 77.982812 34.976562 
" style="fill: none; stroke-dasharray: 7.4,3.2; stroke-dashoffset: 0; stroke: #1f77b4; stroke-width: 2"/>
    </g>
    <g id="text_21">
     <!-- Degree-4 -->
     <g transform="translate(85.982812 38.476562)scale(0.1 -0.1)">
      <defs>
       <path id="DejaVuSans-44" d="M 1259 4147 
L 1259 519 
L 2022 519 
Q 2988 519 3436 956 
Q 3884 1394 3884 2338 
Q 3884 3275 3436 3711 
Q 2988 4147 2022 4147 
L 1259 4147 
z
M 628 4666 
L 1925 4666 
Q 3281 4666 3915 4102 
Q 4550 3538 4550 2338 
Q 4550 1131 3912 565 
Q 3275 0 1925 0 
L 628 0 
L 628 4666 
z
" transform="scale(0.015625)"/>
       <path id="DejaVuSans-65" d="M 3597 1894 
L 3597 1613 
L 953 1613 
Q 991 1019 1311 708 
Q 1631 397 2203 397 
Q 2534 397 2845 478 
Q 3156 559 3463 722 
L 3463 178 
Q 3153 47 2828 -22 
Q 2503 -91 2169 -91 
Q 1331 -91 842 396 
Q 353 884 353 1716 
Q 353 2575 817 3079 
Q 1281 3584 2069 3584 
Q 2775 3584 3186 3129 
Q 3597 2675 3597 1894 
z
M 3022 2063 
Q 3016 2534 2758 2815 
Q 2500 3097 2075 3097 
Q 1594 3097 1305 2825 
Q 1016 2553 972 2059 
L 3022 2063 
z
" transform="scale(0.015625)"/>
       <path id="DejaVuSans-2d" d="M 313 2009 
L 1997 2009 
L 1997 1497 
L 313 1497 
L 313 2009 
z
" transform="scale(0.015625)"/>
      </defs>
      <use xlink:href="#DejaVuSans-44"/>
      <use xlink:href="#DejaVuSans-65" x="77.001953"/>
      <use xlink:href="#DejaVuSans-67" x="138.525391"/>
      <use xlink:href="#DejaVuSans-72" x="202.001953"/>
      <use xlink:href="#DejaVuSans-65" x="240.865234"/>
      <use xlink:href="#DejaVuSans-65" x="302.388672"/>
      <use xlink:href="#DejaVuSans-2d" x="363.912109"/>
      <use xlink:href="#DejaVuSans-34" x="399.996094"/>
     </g>
    </g>
    <g id="line2d_27">
     <path d="M 57.982813 49.654687 
L 67.982812 49.654687 
L 77.982812 49.654687 
" style="fill: none; stroke-dasharray: 7.4,3.2; stroke-dashoffset: 0; stroke: #ff7f0e; stroke-width: 2"/>
    </g>
    <g id="text_22">
     <!-- Degree-5 -->
     <g transform="translate(85.982812 53.154687)scale(0.1 -0.1)">
      <use xlink:href="#DejaVuSans-44"/>
      <use xlink:href="#DejaVuSans-65" x="77.001953"/>
      <use xlink:href="#DejaVuSans-67" x="138.525391"/>
      <use xlink:href="#DejaVuSans-72" x="202.001953"/>
      <use xlink:href="#DejaVuSans-65" x="240.865234"/>
      <use xlink:href="#DejaVuSans-65" x="302.388672"/>
      <use xlink:href="#DejaVuSans-2d" x="363.912109"/>
      <use xlink:href="#DejaVuSans-35" x="399.996094"/>
     </g>
    </g>
    <g id="line2d_28">
     <path d="M 57.982813 64.332812 
L 67.982812 64.332812 
L 77.982812 64.332812 
" style="fill: none; stroke-dasharray: 7.4,3.2; stroke-dashoffset: 0; stroke: #2ca02c; stroke-width: 2"/>
    </g>
    <g id="text_23">
     <!-- Degree-6 -->
     <g transform="translate(85.982812 67.832812)scale(0.1 -0.1)">
      <defs>
       <path id="DejaVuSans-36" d="M 2113 2584 
Q 1688 2584 1439 2293 
Q 1191 2003 1191 1497 
Q 1191 994 1439 701 
Q 1688 409 2113 409 
Q 2538 409 2786 701 
Q 3034 994 3034 1497 
Q 3034 2003 2786 2293 
Q 2538 2584 2113 2584 
z
M 3366 4563 
L 3366 3988 
Q 3128 4100 2886 4159 
Q 2644 4219 2406 4219 
Q 1781 4219 1451 3797 
Q 1122 3375 1075 2522 
Q 1259 2794 1537 2939 
Q 1816 3084 2150 3084 
Q 2853 3084 3261 2657 
Q 3669 2231 3669 1497 
Q 3669 778 3244 343 
Q 2819 -91 2113 -91 
Q 1303 -91 875 529 
Q 447 1150 447 2328 
Q 447 3434 972 4092 
Q 1497 4750 2381 4750 
Q 2619 4750 2861 4703 
Q 3103 4656 3366 4563 
z
" transform="scale(0.015625)"/>
      </defs>
      <use xlink:href="#DejaVuSans-44"/>
      <use xlink:href="#DejaVuSans-65" x="77.001953"/>
      <use xlink:href="#DejaVuSans-67" x="138.525391"/>
      <use xlink:href="#DejaVuSans-72" x="202.001953"/>
      <use xlink:href="#DejaVuSans-65" x="240.865234"/>
      <use xlink:href="#DejaVuSans-65" x="302.388672"/>
      <use xlink:href="#DejaVuSans-2d" x="363.912109"/>
      <use xlink:href="#DejaVuSans-36" x="399.996094"/>
     </g>
    </g>
    <g id="line2d_29">
     <path d="M 57.982813 79.010937 
L 67.982812 79.010937 
L 77.982812 79.010937 
" style="fill: none; stroke-dasharray: 7.4,3.2; stroke-dashoffset: 0; stroke: #d62728; stroke-width: 2"/>
    </g>
    <g id="text_24">
     <!-- Degree-7 -->
     <g transform="translate(85.982812 82.510937)scale(0.1 -0.1)">
      <use xlink:href="#DejaVuSans-44"/>
      <use xlink:href="#DejaVuSans-65" x="77.001953"/>
      <use xlink:href="#DejaVuSans-67" x="138.525391"/>
      <use xlink:href="#DejaVuSans-72" x="202.001953"/>
      <use xlink:href="#DejaVuSans-65" x="240.865234"/>
      <use xlink:href="#DejaVuSans-65" x="302.388672"/>
      <use xlink:href="#DejaVuSans-2d" x="363.912109"/>
      <use xlink:href="#DejaVuSans-37" x="399.996094"/>
     </g>
    </g>
    <g id="line2d_30">
     <path d="M 57.982813 93.689062 
L 67.982812 93.689062 
L 77.982812 93.689062 
" style="fill: none; stroke-dasharray: 7.4,3.2; stroke-dashoffset: 0; stroke: #9467bd; stroke-width: 2"/>
    </g>
    <g id="text_25">
     <!-- Degree-8 -->
     <g transform="translate(85.982812 97.189062)scale(0.1 -0.1)">
      <defs>
       <path id="DejaVuSans-38" d="M 2034 2216 
Q 1584 2216 1326 1975 
Q 1069 1734 1069 1313 
Q 1069 891 1326 650 
Q 1584 409 2034 409 
Q 2484 409 2743 651 
Q 3003 894 3003 1313 
Q 3003 1734 2745 1975 
Q 2488 2216 2034 2216 
z
M 1403 2484 
Q 997 2584 770 2862 
Q 544 3141 544 3541 
Q 544 4100 942 4425 
Q 1341 4750 2034 4750 
Q 2731 4750 3128 4425 
Q 3525 4100 3525 3541 
Q 3525 3141 3298 2862 
Q 3072 2584 2669 2484 
Q 3125 2378 3379 2068 
Q 3634 1759 3634 1313 
Q 3634 634 3220 271 
Q 2806 -91 2034 -91 
Q 1263 -91 848 271 
Q 434 634 434 1313 
Q 434 1759 690 2068 
Q 947 2378 1403 2484 
z
M 1172 3481 
Q 1172 3119 1398 2916 
Q 1625 2713 2034 2713 
Q 2441 2713 2670 2916 
Q 2900 3119 2900 3481 
Q 2900 3844 2670 4047 
Q 2441 4250 2034 4250 
Q 1625 4250 1398 4047 
Q 1172 3844 1172 3481 
z
" transform="scale(0.015625)"/>
      </defs>
      <use xlink:href="#DejaVuSans-44"/>
      <use xlink:href="#DejaVuSans-65" x="77.001953"/>
      <use xlink:href="#DejaVuSans-67" x="138.525391"/>
      <use xlink:href="#DejaVuSans-72" x="202.001953"/>
      <use xlink:href="#DejaVuSans-65" x="240.865234"/>
      <use xlink:href="#DejaVuSans-65" x="302.388672"/>
      <use xlink:href="#DejaVuSans-2d" x="363.912109"/>
      <use xlink:href="#DejaVuSans-38" x="399.996094"/>
     </g>
    </g>
    <g id="line2d_31">
     <path d="M 57.982813 108.367187 
L 67.982812 108.367187 
L 77.982812 108.367187 
" style="fill: none; stroke-dasharray: 7.4,3.2; stroke-dashoffset: 0; stroke: #8c564b; stroke-width: 2"/>
    </g>
    <g id="text_26">
     <!-- Degree-9 -->
     <g transform="translate(85.982812 111.867187)scale(0.1 -0.1)">
      <defs>
       <path id="DejaVuSans-39" d="M 703 97 
L 703 672 
Q 941 559 1184 500 
Q 1428 441 1663 441 
Q 2288 441 2617 861 
Q 2947 1281 2994 2138 
Q 2813 1869 2534 1725 
Q 2256 1581 1919 1581 
Q 1219 1581 811 2004 
Q 403 2428 403 3163 
Q 403 3881 828 4315 
Q 1253 4750 1959 4750 
Q 2769 4750 3195 4129 
Q 3622 3509 3622 2328 
Q 3622 1225 3098 567 
Q 2575 -91 1691 -91 
Q 1453 -91 1209 -44 
Q 966 3 703 97 
z
M 1959 2075 
Q 2384 2075 2632 2365 
Q 2881 2656 2881 3163 
Q 2881 3666 2632 3958 
Q 2384 4250 1959 4250 
Q 1534 4250 1286 3958 
Q 1038 3666 1038 3163 
Q 1038 2656 1286 2365 
Q 1534 2075 1959 2075 
z
" transform="scale(0.015625)"/>
      </defs>
      <use xlink:href="#DejaVuSans-44"/>
      <use xlink:href="#DejaVuSans-65" x="77.001953"/>
      <use xlink:href="#DejaVuSans-67" x="138.525391"/>
      <use xlink:href="#DejaVuSans-72" x="202.001953"/>
      <use xlink:href="#DejaVuSans-65" x="240.865234"/>
      <use xlink:href="#DejaVuSans-65" x="302.388672"/>
      <use xlink:href="#DejaVuSans-2d" x="363.912109"/>
      <use xlink:href="#DejaVuSans-39" x="399.996094"/>
     </g>
    </g>
   </g>
  </g>
 </g>
 <defs>
  <clipPath id="p75fe31cca5">
   <rect x="48.982813" y="7.2" width="332.01" height="190.26"/>
  </clipPath>
 </defs>
</svg>
