<svg width="2397" height="876" xmlns="http://www.w3.org/2000/svg" xmlns:xlink="http://www.w3.org/1999/xlink" xml:space="preserve" overflow="hidden"><defs><clipPath id="clip0"><rect x="1906" y="1255" width="2397" height="876"/></clipPath><clipPath id="clip1"><rect x="1906" y="1255" width="2397" height="876"/></clipPath></defs><g clip-path="url(#clip0)" transform="translate(-1906 -1255)"><g clip-path="url(#clip1)"><path d="M2162.5 1712C2162.5 1676.38 2189.59 1647.5 2223 1647.5 2256.41 1647.5 2283.5 1676.38 2283.5 1712 2283.5 1747.62 2256.41 1776.5 2223 1776.5 2189.59 1776.5 2162.5 1747.62 2162.5 1712Z" stroke="#595959" stroke-width="3.4375" stroke-linecap="butt" stroke-linejoin="round" stroke-miterlimit="10" stroke-opacity="1" fill="#D9EAD3" fill-rule="evenodd" fill-opacity="1"/><path d="M2406.5 1712C2406.5 1676.38 2433.59 1647.5 2467 1647.5 2500.41 1647.5 2527.5 1676.38 2527.5 1712 2527.5 1747.62 2500.41 1776.5 2467 1776.5 2433.59 1776.5 2406.5 1747.62 2406.5 1712Z" stroke="#595959" stroke-width="3.4375" stroke-linecap="butt" stroke-linejoin="round" stroke-miterlimit="10" stroke-opacity="1" fill="#D9EAD3" fill-rule="evenodd" fill-opacity="1"/><path d="M2650.5 1712C2650.5 1676.38 2677.59 1647.5 2711 1647.5 2744.41 1647.5 2771.5 1676.38 2771.5 1712 2771.5 1747.62 2744.41 1776.5 2711 1776.5 2677.59 1776.5 2650.5 1747.62 2650.5 1712Z" stroke="#595959" stroke-width="3.4375" stroke-linecap="butt" stroke-linejoin="round" stroke-miterlimit="10" stroke-opacity="1" fill="#D9EAD3" fill-rule="evenodd" fill-opacity="1"/><path d="M2285.5 1938.5C2285.5 1903.15 2312.59 1874.5 2346 1874.5 2379.41 1874.5 2406.5 1903.15 2406.5 1938.5 2406.5 1973.85 2379.41 2002.5 2346 2002.5 2312.59 2002.5 2285.5 1973.85 2285.5 1938.5Z" stroke="#595959" stroke-width="3.4375" stroke-linecap="butt" stroke-linejoin="round" stroke-miterlimit="10" stroke-opacity="1" fill="#D9EAD3" fill-rule="evenodd" fill-opacity="1"/><path d="M2529.5 1941.5C2529.5 1906.15 2556.59 1877.5 2590 1877.5 2623.41 1877.5 2650.5 1906.15 2650.5 1941.5 2650.5 1976.85 2623.41 2005.5 2590 2005.5 2556.59 2005.5 2529.5 1976.85 2529.5 1941.5Z" stroke="#595959" stroke-width="3.4375" stroke-linecap="butt" stroke-linejoin="round" stroke-miterlimit="10" stroke-opacity="1" fill="#D9EAD3" fill-rule="evenodd" fill-opacity="1"/><path d="M2283.5 1456.5C2283.5 1421.15 2310.59 1392.5 2344 1392.5 2377.41 1392.5 2404.5 1421.15 2404.5 1456.5 2404.5 1491.85 2377.41 1520.5 2344 1520.5 2310.59 1520.5 2283.5 1491.85 2283.5 1456.5Z" stroke="#595959" stroke-width="3.4375" stroke-linecap="butt" stroke-linejoin="round" stroke-miterlimit="10" stroke-opacity="1" fill="#D9EAD3" fill-rule="evenodd" fill-opacity="1"/><path d="M2527.5 1456.5C2527.5 1421.15 2554.59 1392.5 2588 1392.5 2621.41 1392.5 2648.5 1421.15 2648.5 1456.5 2648.5 1491.85 2621.41 1520.5 2588 1520.5 2554.59 1520.5 2527.5 1491.85 2527.5 1456.5Z" stroke="#595959" stroke-width="3.4375" stroke-linecap="butt" stroke-linejoin="round" stroke-miterlimit="10" stroke-opacity="1" fill="#D9EAD3" fill-rule="evenodd" fill-opacity="1"/><path d="M1.25083-1.17878 105.218 109.144 102.717 111.502-1.25083 1.17878ZM110.831 97.557 119.685 127.001 90.8174 116.417Z" fill="#595959" fill-rule="nonzero" fill-opacity="1" transform="matrix(1 0 0 -1 2224.5 1647.5)"/><path d="M0.564218-1.6235 344.353 117.854 343.225 121.101-0.564218 1.6235ZM343.974 104.985 365.436 127.001 334.946 130.961Z" fill="#595959" fill-rule="nonzero" fill-opacity="1" transform="matrix(1 0 0 -1 2222.5 1647.5)"/><path d="M2465.38 1648.7 2358.22 1538.15 2360.68 1535.76 2467.84 1646.3ZM2352.77 1549.82 2343.5 1520.5 2372.51 1530.68Z" fill="#595959" fill-rule="nonzero" fill-opacity="1"/><path d="M1.24358-1.18642 106.588 109.233 104.101 111.606-1.24358 1.18642ZM112.129 97.6118 121.163 127.001 92.2317 116.595Z" fill="#595959" fill-rule="nonzero" fill-opacity="1" transform="matrix(1 0 0 -1 2466.5 1647.5)"/><path d="M2710.38 1648.7 2603.22 1538.15 2605.68 1535.76 2712.84 1646.3ZM2597.77 1549.82 2588.5 1520.5 2617.51 1530.68Z" fill="#595959" fill-rule="nonzero" fill-opacity="1"/><path d="M2710.32 1649.12 2364.6 1529.61 2365.72 1526.36 2711.44 1645.88ZM2365 1542.48 2343.5 1520.5 2373.98 1516.49Z" fill="#595959" fill-rule="nonzero" fill-opacity="1"/><path d="M2344.53 1876.69 2239.29 1792.19 2241.45 1789.51 2346.69 1874.01ZM2235.33 1804.44 2222.5 1776.5 2252.55 1783Z" fill="#595959" fill-rule="nonzero" fill-opacity="1"/><path d="M1.08649-1.33178 104.492 83.0283 102.319 85.6919-1.08649 1.33178ZM108.546 70.8086 121.163 98.8466 91.1627 92.1171Z" fill="#595959" fill-rule="nonzero" fill-opacity="1" transform="matrix(1 0 0 -1 2345.5 1875.35)"/><path d="M0.448776-1.65913 343.763 91.2039 342.866 94.5221-0.448776 1.65913ZM342.48 78.3932 365.436 98.8466 335.3 104.939Z" fill="#595959" fill-rule="nonzero" fill-opacity="1" transform="matrix(1 0 0 -1 2345.5 1875.35)"/><path d="M2589.42 1879.51 2244.13 1784.25 2245.05 1780.94 2590.34 1876.2ZM2245.35 1797.07 2222.5 1776.5 2252.67 1770.56Z" fill="#595959" fill-rule="nonzero" fill-opacity="1"/><path d="M2588.52 1879.18 2483.1 1792.39 2485.28 1789.74 2590.7 1876.53ZM2478.99 1804.59 2466.5 1776.5 2496.47 1783.36Z" fill="#595959" fill-rule="nonzero" fill-opacity="1"/><path d="M1.10277-1.31833 104.688 85.3303 102.483 87.967-1.10277 1.31833ZM108.892 73.1613 121.163 101.352 91.2477 94.2545Z" fill="#595959" fill-rule="nonzero" fill-opacity="1" transform="matrix(1 0 0 -1 2590.5 1877.85)"/><path d="M3445.5 1828.5C3445.5 1793.15 3472.59 1764.5 3506 1764.5 3539.41 1764.5 3566.5 1793.15 3566.5 1828.5 3566.5 1863.85 3539.41 1892.5 3506 1892.5 3472.59 1892.5 3445.5 1863.85 3445.5 1828.5Z" stroke="#595959" stroke-width="3.4375" stroke-linecap="butt" stroke-linejoin="round" stroke-miterlimit="10" stroke-opacity="1" fill="#D9EAD3" fill-rule="evenodd" fill-opacity="1"/><path d="M3689.5 1828.5C3689.5 1793.15 3716.59 1764.5 3750 1764.5 3783.41 1764.5 3810.5 1793.15 3810.5 1828.5 3810.5 1863.85 3783.41 1892.5 3750 1892.5 3716.59 1892.5 3689.5 1863.85 3689.5 1828.5Z" stroke="#595959" stroke-width="3.4375" stroke-linecap="butt" stroke-linejoin="round" stroke-miterlimit="10" stroke-opacity="1" fill="#D9EAD3" fill-rule="evenodd" fill-opacity="1"/><path d="M3933.5 1828.5C3933.5 1793.15 3960.59 1764.5 3994 1764.5 4027.41 1764.5 4054.5 1793.15 4054.5 1828.5 4054.5 1863.85 4027.41 1892.5 3994 1892.5 3960.59 1892.5 3933.5 1863.85 3933.5 1828.5Z" stroke="#595959" stroke-width="3.4375" stroke-linecap="butt" stroke-linejoin="round" stroke-miterlimit="10" stroke-opacity="1" fill="#D9EAD3" fill-rule="evenodd" fill-opacity="1"/><path d="M3568.5 2055.5C3568.5 2020.15 3595.59 1991.5 3629 1991.5 3662.41 1991.5 3689.5 2020.15 3689.5 2055.5 3689.5 2090.85 3662.41 2119.5 3629 2119.5 3595.59 2119.5 3568.5 2090.85 3568.5 2055.5Z" stroke="#595959" stroke-width="3.4375" stroke-linecap="butt" stroke-linejoin="round" stroke-miterlimit="10" stroke-opacity="1" fill="#D9EAD3" fill-rule="evenodd" fill-opacity="1"/><path d="M3812.5 2057.5C3812.5 2022.15 3839.59 1993.5 3873 1993.5 3906.41 1993.5 3933.5 2022.15 3933.5 2057.5 3933.5 2092.85 3906.41 2121.5 3873 2121.5 3839.59 2121.5 3812.5 2092.85 3812.5 2057.5Z" stroke="#595959" stroke-width="3.4375" stroke-linecap="butt" stroke-linejoin="round" stroke-miterlimit="10" stroke-opacity="1" fill="#D9EAD3" fill-rule="evenodd" fill-opacity="1"/><path d="M3794.5 1573.5C3794.5 1538.15 3821.59 1509.5 3855 1509.5 3888.41 1509.5 3915.5 1538.15 3915.5 1573.5 3915.5 1608.85 3888.41 1637.5 3855 1637.5 3821.59 1637.5 3794.5 1608.85 3794.5 1573.5Z" stroke="#595959" stroke-width="3.4375" stroke-linecap="butt" stroke-linejoin="round" stroke-miterlimit="10" stroke-opacity="1" fill="#F5CDCC" fill-rule="evenodd" fill-opacity="1"/><path d="M4007.5 1570.5C4007.5 1535.15 4034.81 1506.5 4068.5 1506.5 4102.19 1506.5 4129.5 1535.15 4129.5 1570.5 4129.5 1605.85 4102.19 1634.5 4068.5 1634.5 4034.81 1634.5 4007.5 1605.85 4007.5 1570.5Z" stroke="#595959" stroke-width="3.4375" stroke-linecap="butt" stroke-linejoin="round" stroke-miterlimit="10" stroke-opacity="1" fill="#F5CDCC" fill-rule="evenodd" fill-opacity="1"/><path d="M0.586588-1.61555 328.825 117.564 327.652 120.795-0.586588 1.61555ZM328.623 104.691 349.779 127.001 319.238 130.54Z" fill="#595959" fill-rule="nonzero" fill-opacity="1" transform="matrix(1 0 0 -1 3505.5 1764.5)"/><path d="M0.385322-1.675 541.019 122.694 540.249 126.044-0.385322 1.675ZM539.25 109.941 562.968 129.507 533.085 136.741Z" fill="#595959" fill-rule="nonzero" fill-opacity="1" transform="matrix(1 0 0 -1 3505.5 1764.01)"/><path d="M1.32205-1.09831 92.1852 108.275 89.5411 110.472-1.32205 1.09831ZM98.5107 97.0613 105.507 127.001 77.3579 114.634Z" fill="#595959" fill-rule="nonzero" fill-opacity="1" transform="matrix(1 0 0 -1 3749.5 1764.5)"/><path d="M0.647054-1.5923 298.112 119.287 296.818 122.471-0.647054 1.5923ZM298.396 106.415 318.696 129.507 288.043 131.892Z" fill="#595959" fill-rule="nonzero" fill-opacity="1" transform="matrix(1 0 0 -1 3749.5 1764.01)"/><path d="M1.49021-0.856375 64.4951 108.781 61.5147 110.494-1.49021 0.856375ZM72.6429 98.8122 74.4232 129.507 48.7996 112.514Z" fill="#595959" fill-rule="nonzero" fill-opacity="1" transform="matrix(1 0 0 -1 3994.5 1764.01)"/><path d="M3993.1 1765.77 3871.24 1654.24 3873.57 1651.7 3995.43 1763.23ZM3866.5 1666.21 3855.5 1637.5 3885.07 1645.92Z" fill="#595959" fill-rule="nonzero" fill-opacity="1"/><path d="M3627.53 1992.69 3522.29 1908.19 3524.45 1905.51 3629.69 1990.01ZM3518.33 1920.44 3505.5 1892.5 3535.55 1899Z" fill="#595959" fill-rule="nonzero" fill-opacity="1"/><path d="M1.08649-1.33178 104.492 83.0283 102.319 85.6919-1.08649 1.33178ZM108.546 70.8086 121.163 98.8466 91.1627 92.1171Z" fill="#595959" fill-rule="nonzero" fill-opacity="1" transform="matrix(1 0 0 -1 3628.5 1991.35)"/><path d="M0.448776-1.65913 343.763 91.2039 342.866 94.5221-0.448776 1.65913ZM342.48 78.3932 365.436 98.8466 335.3 104.939Z" fill="#595959" fill-rule="nonzero" fill-opacity="1" transform="matrix(1 0 0 -1 3628.5 1991.35)"/><path d="M3872.42 1995.51 3527.13 1900.25 3528.05 1896.94 3873.34 1992.2ZM3528.35 1913.07 3505.5 1892.5 3535.67 1886.56Z" fill="#595959" fill-rule="nonzero" fill-opacity="1"/><path d="M3871.52 1995.18 3766.1 1908.39 3768.28 1905.74 3873.7 1992.53ZM3761.99 1920.59 3749.5 1892.5 3779.47 1899.36Z" fill="#595959" fill-rule="nonzero" fill-opacity="1"/><path d="M1.10277-1.31833 104.688 85.3303 102.483 87.967-1.10277 1.31833ZM108.892 73.1613 121.163 101.352 91.2477 94.2545Z" fill="#595959" fill-rule="nonzero" fill-opacity="1" transform="matrix(1 0 0 -1 3872.5 1993.85)"/><path d="M3586.5 1570.5C3586.5 1535.15 3613.59 1506.5 3647 1506.5 3680.41 1506.5 3707.5 1535.15 3707.5 1570.5 3707.5 1605.85 3680.41 1634.5 3647 1634.5 3613.59 1634.5 3586.5 1605.85 3586.5 1570.5Z" stroke="#595959" stroke-width="3.4375" stroke-linecap="butt" stroke-linejoin="round" stroke-miterlimit="10" stroke-opacity="1" fill="#F5CDCC" fill-rule="evenodd" fill-opacity="1"/><path d="M3364.5 1573.5C3364.5 1538.15 3391.59 1509.5 3425 1509.5 3458.41 1509.5 3485.5 1538.15 3485.5 1573.5 3485.5 1608.85 3458.41 1637.5 3425 1637.5 3391.59 1637.5 3364.5 1608.85 3364.5 1573.5Z" stroke="#595959" stroke-width="3.4375" stroke-linecap="butt" stroke-linejoin="round" stroke-miterlimit="10" stroke-opacity="1" fill="#F5CDCC" fill-rule="evenodd" fill-opacity="1"/><path d="M3567.5 1324.5C3567.5 1289.15 3594.59 1260.5 3628 1260.5 3661.41 1260.5 3688.5 1289.15 3688.5 1324.5 3688.5 1359.85 3661.41 1388.5 3628 1388.5 3594.59 1388.5 3567.5 1359.85 3567.5 1324.5Z" stroke="#595959" stroke-width="3.4375" stroke-linecap="butt" stroke-linejoin="round" stroke-miterlimit="10" stroke-opacity="1" fill="#D9EAD3" fill-rule="evenodd" fill-opacity="1"/><path d="M3811.5 1324.5C3811.5 1289.15 3838.59 1260.5 3872 1260.5 3905.41 1260.5 3932.5 1289.15 3932.5 1324.5 3932.5 1359.85 3905.41 1388.5 3872 1388.5 3838.59 1388.5 3811.5 1359.85 3811.5 1324.5Z" stroke="#595959" stroke-width="3.4375" stroke-linecap="butt" stroke-linejoin="round" stroke-miterlimit="10" stroke-opacity="1" fill="#D9EAD3" fill-rule="evenodd" fill-opacity="1"/><path d="M3504.06 1765.43 3435.37 1657.75 3438.27 1655.9 3506.95 1763.58ZM3427.7 1668.08 3424.5 1637.5 3450.88 1653.29Z" fill="#595959" fill-rule="nonzero" fill-opacity="1"/><path d="M1.16213-1.26631 125.394 112.745 123.07 115.278-1.16213 1.26631ZM130.153 100.782 141.117 129.507 111.558 121.043Z" fill="#595959" fill-rule="nonzero" fill-opacity="1" transform="matrix(1 0 0 -1 3505.5 1764.01)"/><path d="M0.586588-1.61555 328.825 117.564 327.652 120.795-0.586588 1.61555ZM328.623 104.691 349.779 127.001 319.238 130.54Z" fill="#595959" fill-rule="nonzero" fill-opacity="1" transform="matrix(1 0 0 -1 3505.5 1764.5)"/><path d="M3748.31 1765.08 3659.43 1653.5 3662.12 1651.35 3751 1762.94ZM3652.88 1664.58 3646.5 1634.5 3674.39 1647.44Z" fill="#595959" fill-rule="nonzero" fill-opacity="1"/><path d="M3749.15 1766.1 3445.22 1647.44 3446.47 1644.23 3750.4 1762.9ZM3445.12 1660.31 3424.5 1637.5 3455.12 1634.69Z" fill="#595959" fill-rule="nonzero" fill-opacity="1"/><path d="M3993.68 1766.18 3446.49 1644.17 3447.24 1640.81 3994.42 1762.82ZM3448.35 1656.91 3424.5 1637.5 3454.33 1630.06Z" fill="#595959" fill-rule="nonzero" fill-opacity="1"/><path d="M3993.33 1765.62 3667.37 1644.11 3668.57 1640.89 3994.53 1762.4ZM3667.47 1656.99 3646.5 1634.5 3677.07 1631.22Z" fill="#595959" fill-rule="nonzero" fill-opacity="1"/><path d="M0.877895-1.47763 184.694 107.732 182.939 110.687-0.877895 1.47763ZM186.899 95.0474 203.518 120.915 172.853 118.69Z" fill="#595959" fill-rule="nonzero" fill-opacity="1" transform="matrix(1 0 0 -1 3424.5 1509.41)"/><path d="M0.448059-1.65932 426.114 113.281 425.218 116.6-0.448059 1.65932ZM424.826 100.471 447.791 120.915 417.657 127.02Z" fill="#595959" fill-rule="nonzero" fill-opacity="1" transform="matrix(1 0 0 -1 3424.5 1509.41)"/><path d="M3645.41 1507.18 3630.36 1411.41 3633.76 1410.87 3648.8 1506.64ZM3619.19 1417.8 3628.5 1388.5 3646.35 1413.53Z" fill="#595959" fill-rule="nonzero" fill-opacity="1"/><path d="M0.798579-1.52196 206.174 106.239 204.577 109.283-0.798579 1.52196ZM207.705 93.4558 225.668 118.409 194.928 117.807Z" fill="#595959" fill-rule="nonzero" fill-opacity="1" transform="matrix(1 0 0 -1 3646.5 1506.91)"/><path d="M3854.96 1510.93 3647.92 1400.78 3649.54 1397.75 3856.57 1507.9ZM3646.32 1413.56 3628.5 1388.5 3659.24 1389.28Z" fill="#595959" fill-rule="nonzero" fill-opacity="1"/><path d="M1.702-0.239366 15.5157 97.9822 12.1117 98.4609-1.702 0.239366ZM26.7914 91.7679 17.0052 120.915-0.440617 95.5978Z" fill="#595959" fill-rule="nonzero" fill-opacity="1" transform="matrix(1 0 0 -1 3855.5 1509.41)"/><path d="M4068.51 1508.57 3650.18 1396.11 3651.08 1392.79 4069.4 1505.25ZM3651.49 1408.92 3628.5 1388.5 3658.63 1382.36Z" fill="#595959" fill-rule="nonzero" fill-opacity="1"/><path d="M4067.8 1508.38 3891.23 1401.81 3893.01 1398.87 4069.57 1505.44ZM3888.94 1414.48 3872.5 1388.5 3903.15 1390.94Z" fill="#595959" fill-rule="nonzero" fill-opacity="1"/><text fill="#000000" fill-opacity="1" font-family="Cambria Math,Cambria Math_MSFontService,sans-serif" font-style="normal" font-variant="normal" font-weight="400" font-stretch="normal" font-size="49" text-anchor="start" direction="ltr" writing-mode="lr-tb" unicode-bidi="normal" text-decoration="none" transform="matrix(1 0 0 1 1927.46 1983)">L</text><text fill="#000000" fill-opacity="1" font-family="Cambria Math,Cambria Math_MSFontService,sans-serif" font-style="normal" font-variant="normal" font-weight="400" font-stretch="normal" font-size="49" text-anchor="start" direction="ltr" writing-mode="lr-tb" unicode-bidi="normal" text-decoration="none" transform="matrix(1 0 0 1 1953.81 1983)">𝑎𝑦𝑒𝑟</text><text fill="#000000" fill-opacity="1" font-family="Cambria Math,Cambria Math_MSFontService,sans-serif" font-style="normal" font-variant="normal" font-weight="400" font-stretch="normal" font-size="49" text-anchor="start" direction="ltr" writing-mode="lr-tb" unicode-bidi="normal" text-decoration="none" transform="matrix(1 0 0 1 2057.44 1983)">:</text><text fill="#000000" fill-opacity="1" font-family="Cambria Math,Cambria Math_MSFontService,sans-serif" font-style="normal" font-variant="normal" font-weight="400" font-stretch="normal" font-size="49" text-anchor="start" direction="ltr" writing-mode="lr-tb" unicode-bidi="normal" text-decoration="none" transform="matrix(1 0 0 1 2078.75 1983)">𝑞</text><text fill="#000000" fill-opacity="1" font-family="Cambria Math,Cambria Math_MSFontService,sans-serif" font-style="normal" font-variant="normal" font-weight="400" font-stretch="normal" font-size="49" text-anchor="start" direction="ltr" writing-mode="lr-tb" unicode-bidi="normal" text-decoration="none" transform="matrix(1 0 0 1 2117.41 1983)">−</text><text fill="#000000" fill-opacity="1" font-family="Cambria Math,Cambria Math_MSFontService,sans-serif" font-style="normal" font-variant="normal" font-weight="400" font-stretch="normal" font-size="49" text-anchor="start" direction="ltr" writing-mode="lr-tb" unicode-bidi="normal" text-decoration="none" transform="matrix(1 0 0 1 2164.92 1983)">1</text><text fill="#000000" fill-opacity="1" font-family="Cambria Math,Cambria Math_MSFontService,sans-serif" font-style="normal" font-variant="normal" font-weight="400" font-stretch="normal" font-size="49" text-anchor="start" direction="ltr" writing-mode="lr-tb" unicode-bidi="normal" text-decoration="none" transform="matrix(1 0 0 1 1946.02 1724)">L</text><text fill="#000000" fill-opacity="1" font-family="Cambria Math,Cambria Math_MSFontService,sans-serif" font-style="normal" font-variant="normal" font-weight="400" font-stretch="normal" font-size="49" text-anchor="start" direction="ltr" writing-mode="lr-tb" unicode-bidi="normal" text-decoration="none" transform="matrix(1 0 0 1 1972.37 1724)">𝑎𝑦𝑒𝑟</text><text fill="#000000" fill-opacity="1" font-family="Cambria Math,Cambria Math_MSFontService,sans-serif" font-style="normal" font-variant="normal" font-weight="400" font-stretch="normal" font-size="49" text-anchor="start" direction="ltr" writing-mode="lr-tb" unicode-bidi="normal" text-decoration="none" transform="matrix(1 0 0 1 2076 1724)">:</text><text fill="#000000" fill-opacity="1" font-family="Cambria Math,Cambria Math_MSFontService,sans-serif" font-style="normal" font-variant="normal" font-weight="400" font-stretch="normal" font-size="49" text-anchor="start" direction="ltr" writing-mode="lr-tb" unicode-bidi="normal" text-decoration="none" transform="matrix(1 0 0 1 2097.31 1724)">𝑞</text><text fill="#000000" fill-opacity="1" font-family="Cambria Math,Cambria Math_MSFontService,sans-serif" font-style="normal" font-variant="normal" font-weight="400" font-stretch="normal" font-size="49" text-anchor="start" direction="ltr" writing-mode="lr-tb" unicode-bidi="normal" text-decoration="none" transform="matrix(1 0 0 1 1941.1 1462)">L</text><text fill="#000000" fill-opacity="1" font-family="Cambria Math,Cambria Math_MSFontService,sans-serif" font-style="normal" font-variant="normal" font-weight="400" font-stretch="normal" font-size="49" text-anchor="start" direction="ltr" writing-mode="lr-tb" unicode-bidi="normal" text-decoration="none" transform="matrix(1 0 0 1 1967.45 1462)">𝑎𝑦𝑒𝑟</text><text fill="#000000" fill-opacity="1" font-family="Cambria Math,Cambria Math_MSFontService,sans-serif" font-style="normal" font-variant="normal" font-weight="400" font-stretch="normal" font-size="49" text-anchor="start" direction="ltr" writing-mode="lr-tb" unicode-bidi="normal" text-decoration="none" transform="matrix(1 0 0 1 2071.08 1462)">:</text><text fill="#000000" fill-opacity="1" font-family="Cambria Math,Cambria Math_MSFontService,sans-serif" font-style="normal" font-variant="normal" font-weight="400" font-stretch="normal" font-size="49" text-anchor="start" direction="ltr" writing-mode="lr-tb" unicode-bidi="normal" text-decoration="none" transform="matrix(1 0 0 1 2092.39 1462)">𝑞</text><text fill="#000000" fill-opacity="1" font-family="Cambria Math,Cambria Math_MSFontService,sans-serif" font-style="normal" font-variant="normal" font-weight="400" font-stretch="normal" font-size="49" text-anchor="start" direction="ltr" writing-mode="lr-tb" unicode-bidi="normal" text-decoration="none" transform="matrix(1 0 0 1 2131.05 1462)">+</text><text fill="#000000" fill-opacity="1" font-family="Cambria Math,Cambria Math_MSFontService,sans-serif" font-style="normal" font-variant="normal" font-weight="400" font-stretch="normal" font-size="49" text-anchor="start" direction="ltr" writing-mode="lr-tb" unicode-bidi="normal" text-decoration="none" transform="matrix(1 0 0 1 2178.56 1462)">1</text><text fill="#000000" fill-opacity="1" font-family="Cambria Math,Cambria Math_MSFontService,sans-serif" font-style="normal" font-variant="normal" font-weight="400" font-stretch="normal" font-size="49" text-anchor="start" direction="ltr" writing-mode="lr-tb" unicode-bidi="normal" text-decoration="none" transform="matrix(1 0 0 1 3114.01 2061)">L</text><text fill="#000000" fill-opacity="1" font-family="Cambria Math,Cambria Math_MSFontService,sans-serif" font-style="normal" font-variant="normal" font-weight="400" font-stretch="normal" font-size="49" text-anchor="start" direction="ltr" writing-mode="lr-tb" unicode-bidi="normal" text-decoration="none" transform="matrix(1 0 0 1 3140.36 2061)">𝑎𝑦𝑒𝑟</text><text fill="#000000" fill-opacity="1" font-family="Cambria Math,Cambria Math_MSFontService,sans-serif" font-style="normal" font-variant="normal" font-weight="400" font-stretch="normal" font-size="49" text-anchor="start" direction="ltr" writing-mode="lr-tb" unicode-bidi="normal" text-decoration="none" transform="matrix(1 0 0 1 3243.99 2061)">:</text><text fill="#000000" fill-opacity="1" font-family="Cambria Math,Cambria Math_MSFontService,sans-serif" font-style="normal" font-variant="normal" font-weight="400" font-stretch="normal" font-size="49" text-anchor="start" direction="ltr" writing-mode="lr-tb" unicode-bidi="normal" text-decoration="none" transform="matrix(1 0 0 1 3265.3 2061)">𝑞</text><text fill="#000000" fill-opacity="1" font-family="Cambria Math,Cambria Math_MSFontService,sans-serif" font-style="normal" font-variant="normal" font-weight="400" font-stretch="normal" font-size="49" text-anchor="start" direction="ltr" writing-mode="lr-tb" unicode-bidi="normal" text-decoration="none" transform="matrix(1 0 0 1 3303.96 2061)">−</text><text fill="#000000" fill-opacity="1" font-family="Cambria Math,Cambria Math_MSFontService,sans-serif" font-style="normal" font-variant="normal" font-weight="400" font-stretch="normal" font-size="49" text-anchor="start" direction="ltr" writing-mode="lr-tb" unicode-bidi="normal" text-decoration="none" transform="matrix(1 0 0 1 3351.47 2061)">1</text><text fill="#000000" fill-opacity="1" font-family="Cambria Math,Cambria Math_MSFontService,sans-serif" font-style="normal" font-variant="normal" font-weight="400" font-stretch="normal" font-size="49" text-anchor="start" direction="ltr" writing-mode="lr-tb" unicode-bidi="normal" text-decoration="none" transform="matrix(1 0 0 1 3132.57 1826)">L</text><text fill="#000000" fill-opacity="1" font-family="Cambria Math,Cambria Math_MSFontService,sans-serif" font-style="normal" font-variant="normal" font-weight="400" font-stretch="normal" font-size="49" text-anchor="start" direction="ltr" writing-mode="lr-tb" unicode-bidi="normal" text-decoration="none" transform="matrix(1 0 0 1 3158.93 1826)">𝑎𝑦𝑒𝑟</text><text fill="#000000" fill-opacity="1" font-family="Cambria Math,Cambria Math_MSFontService,sans-serif" font-style="normal" font-variant="normal" font-weight="400" font-stretch="normal" font-size="49" text-anchor="start" direction="ltr" writing-mode="lr-tb" unicode-bidi="normal" text-decoration="none" transform="matrix(1 0 0 1 3262.55 1826)">:</text><text fill="#000000" fill-opacity="1" font-family="Cambria Math,Cambria Math_MSFontService,sans-serif" font-style="normal" font-variant="normal" font-weight="400" font-stretch="normal" font-size="49" text-anchor="start" direction="ltr" writing-mode="lr-tb" unicode-bidi="normal" text-decoration="none" transform="matrix(1 0 0 1 3283.87 1826)">𝑞</text><text fill="#000000" fill-opacity="1" font-family="Cambria Math,Cambria Math_MSFontService,sans-serif" font-style="normal" font-variant="normal" font-weight="400" font-stretch="normal" font-size="49" text-anchor="start" direction="ltr" writing-mode="lr-tb" unicode-bidi="normal" text-decoration="none" transform="matrix(1 0 0 1 3120.75 1560)">L</text><text fill="#000000" fill-opacity="1" font-family="Cambria Math,Cambria Math_MSFontService,sans-serif" font-style="normal" font-variant="normal" font-weight="400" font-stretch="normal" font-size="49" text-anchor="start" direction="ltr" writing-mode="lr-tb" unicode-bidi="normal" text-decoration="none" transform="matrix(1 0 0 1 3147.11 1560)">𝑎𝑦𝑒𝑟</text><text fill="#000000" fill-opacity="1" font-family="Cambria Math,Cambria Math_MSFontService,sans-serif" font-style="normal" font-variant="normal" font-weight="400" font-stretch="normal" font-size="49" text-anchor="start" direction="ltr" writing-mode="lr-tb" unicode-bidi="normal" text-decoration="none" transform="matrix(1 0 0 1 3250.74 1560)">:</text><text fill="#000000" fill-opacity="1" font-family="Cambria Math,Cambria Math_MSFontService,sans-serif" font-style="normal" font-variant="normal" font-weight="400" font-stretch="normal" font-size="49" text-anchor="start" direction="ltr" writing-mode="lr-tb" unicode-bidi="normal" text-decoration="none" transform="matrix(1 0 0 1 3272.05 1560)">𝑞</text><path d="M11.7476-34.501 19.8823-26.9644 18.5903-25.6006 10.1445-31.4145 9.88135-31.4145 1.29199-25.6006 0-26.9644 8.5415-34.501Z" fill="#000000" fill-rule="nonzero" fill-opacity="1" transform="matrix(1 0 0 1 3277.48 1560)"/><text fill="#000000" fill-opacity="0" font-family="Arial,Arial_MSFontService,sans-serif" font-size="8.90039" direction="ltr" writing-mode="lr-tb" y="-26.7131">ො</text><text fill="#000000" fill-opacity="1" font-family="Cambria Math,Cambria Math_MSFontService,sans-serif" font-style="normal" font-variant="normal" font-weight="400" font-stretch="normal" font-size="49" text-anchor="start" direction="ltr" writing-mode="lr-tb" unicode-bidi="normal" text-decoration="none" transform="matrix(1 0 0 1 3083.93 1325)">L</text><text fill="#000000" fill-opacity="1" font-family="Cambria Math,Cambria Math_MSFontService,sans-serif" font-style="normal" font-variant="normal" font-weight="400" font-stretch="normal" font-size="49" text-anchor="start" direction="ltr" writing-mode="lr-tb" unicode-bidi="normal" text-decoration="none" transform="matrix(1 0 0 1 3110.28 1325)">𝑎𝑦𝑒𝑟</text><text fill="#000000" fill-opacity="1" font-family="Cambria Math,Cambria Math_MSFontService,sans-serif" font-style="normal" font-variant="normal" font-weight="400" font-stretch="normal" font-size="49" text-anchor="start" direction="ltr" writing-mode="lr-tb" unicode-bidi="normal" text-decoration="none" transform="matrix(1 0 0 1 3213.91 1325)">:</text><text fill="#000000" fill-opacity="1" font-family="Cambria Math,Cambria Math_MSFontService,sans-serif" font-style="normal" font-variant="normal" font-weight="400" font-stretch="normal" font-size="49" text-anchor="start" direction="ltr" writing-mode="lr-tb" unicode-bidi="normal" text-decoration="none" transform="matrix(1 0 0 1 3235.23 1325)">𝑞</text><text fill="#000000" fill-opacity="1" font-family="Cambria Math,Cambria Math_MSFontService,sans-serif" font-style="normal" font-variant="normal" font-weight="400" font-stretch="normal" font-size="49" text-anchor="start" direction="ltr" writing-mode="lr-tb" unicode-bidi="normal" text-decoration="none" transform="matrix(1 0 0 1 3273.89 1325)">+</text><text fill="#000000" fill-opacity="1" font-family="Cambria Math,Cambria Math_MSFontService,sans-serif" font-style="normal" font-variant="normal" font-weight="400" font-stretch="normal" font-size="49" text-anchor="start" direction="ltr" writing-mode="lr-tb" unicode-bidi="normal" text-decoration="none" transform="matrix(1 0 0 1 3321.39 1325)">1</text><text fill="#000000" fill-opacity="1" font-family="Cambria Math,Cambria Math_MSFontService,sans-serif" font-style="normal" font-variant="normal" font-weight="400" font-stretch="normal" font-size="49" text-anchor="start" direction="ltr" writing-mode="lr-tb" unicode-bidi="normal" text-decoration="none" transform="matrix(1 0 0 1 2647.19 1578)">𝑊</text><text fill="#000000" fill-opacity="1" font-family="Cambria Math,Cambria Math_MSFontService,sans-serif" font-style="normal" font-variant="normal" font-weight="400" font-stretch="normal" font-size="36" text-anchor="start" direction="ltr" writing-mode="lr-tb" unicode-bidi="normal" text-decoration="none" transform="matrix(1 0 0 1 2696.65 1560)">[</text><text fill="#000000" fill-opacity="1" font-family="Cambria Math,Cambria Math_MSFontService,sans-serif" font-style="normal" font-variant="normal" font-weight="400" font-stretch="normal" font-size="36" text-anchor="start" direction="ltr" writing-mode="lr-tb" unicode-bidi="normal" text-decoration="none" transform="matrix(1 0 0 1 2709.25 1560)">𝑞</text><text fill="#000000" fill-opacity="1" font-family="Cambria Math,Cambria Math_MSFontService,sans-serif" font-style="normal" font-variant="normal" font-weight="400" font-stretch="normal" font-size="36" text-anchor="start" direction="ltr" writing-mode="lr-tb" unicode-bidi="normal" text-decoration="none" transform="matrix(1 0 0 1 2731.53 1560)">+</text><text fill="#000000" fill-opacity="1" font-family="Cambria Math,Cambria Math_MSFontService,sans-serif" font-style="normal" font-variant="normal" font-weight="400" font-stretch="normal" font-size="36" text-anchor="start" direction="ltr" writing-mode="lr-tb" unicode-bidi="normal" text-decoration="none" transform="matrix(1 0 0 1 2757.31 1560)">1</text><text fill="#000000" fill-opacity="1" font-family="Cambria Math,Cambria Math_MSFontService,sans-serif" font-style="normal" font-variant="normal" font-weight="400" font-stretch="normal" font-size="36" text-anchor="start" direction="ltr" writing-mode="lr-tb" unicode-bidi="normal" text-decoration="none" transform="matrix(1 0 0 1 2777.93 1560)">]</text><text fill="#000000" fill-opacity="1" font-family="Cambria Math,Cambria Math_MSFontService,sans-serif" font-style="normal" font-variant="normal" font-weight="400" font-stretch="normal" font-size="49" text-anchor="start" direction="ltr" writing-mode="lr-tb" unicode-bidi="normal" text-decoration="none" transform="matrix(1 0 0 1 3340.01 1721)">𝑊′</text><text fill="#000000" fill-opacity="1" font-family="Cambria Math,Cambria Math_MSFontService,sans-serif" font-style="normal" font-variant="normal" font-weight="400" font-stretch="normal" font-size="36" text-anchor="start" direction="ltr" writing-mode="lr-tb" unicode-bidi="normal" text-decoration="none" transform="matrix(1 0 0 1 3399.02 1703)">[</text><text fill="#000000" fill-opacity="1" font-family="Cambria Math,Cambria Math_MSFontService,sans-serif" font-style="normal" font-variant="normal" font-weight="400" font-stretch="normal" font-size="36" text-anchor="start" direction="ltr" writing-mode="lr-tb" unicode-bidi="normal" text-decoration="none" transform="matrix(1 0 0 1 3411.63 1703)">𝑞</text><path d="M8.63086-25.3477 14.6074-19.8105 13.6582-18.8086 7.45312-23.0801 7.25976-23.0801 0.949219-18.8086 0-19.8105 6.27539-25.3477Z" fill="#000000" fill-rule="nonzero" fill-opacity="1" transform="matrix(1 0 0 1 3417.01 1702)"/><text fill="#000000" fill-opacity="0" font-family="Arial,Arial_MSFontService,sans-serif" font-size="6.53906" direction="ltr" writing-mode="lr-tb" y="-19.626">ො</text><text fill="#000000" fill-opacity="1" font-family="Cambria Math,Cambria Math_MSFontService,sans-serif" font-style="normal" font-variant="normal" font-weight="400" font-stretch="normal" font-size="36" text-anchor="start" direction="ltr" writing-mode="lr-tb" unicode-bidi="normal" text-decoration="none" transform="matrix(1 0 0 1 3433.9 1703)">]</text><text fill="#000000" fill-opacity="1" font-family="Cambria Math,Cambria Math_MSFontService,sans-serif" font-style="normal" font-variant="normal" font-weight="400" font-stretch="normal" font-size="49" text-anchor="start" direction="ltr" writing-mode="lr-tb" unicode-bidi="normal" text-decoration="none" transform="matrix(1 0 0 1 3414 1431)">𝑊′</text><text fill="#000000" fill-opacity="1" font-family="Cambria Math,Cambria Math_MSFontService,sans-serif" font-style="normal" font-variant="normal" font-weight="400" font-stretch="normal" font-size="36" text-anchor="start" direction="ltr" writing-mode="lr-tb" unicode-bidi="normal" text-decoration="none" transform="matrix(1 0 0 1 3473.01 1413)">[</text><text fill="#000000" fill-opacity="1" font-family="Cambria Math,Cambria Math_MSFontService,sans-serif" font-style="normal" font-variant="normal" font-weight="400" font-stretch="normal" font-size="36" text-anchor="start" direction="ltr" writing-mode="lr-tb" unicode-bidi="normal" text-decoration="none" transform="matrix(1 0 0 1 3485.62 1413)">𝑞</text><text fill="#000000" fill-opacity="1" font-family="Cambria Math,Cambria Math_MSFontService,sans-serif" font-style="normal" font-variant="normal" font-weight="400" font-stretch="normal" font-size="36" text-anchor="start" direction="ltr" writing-mode="lr-tb" unicode-bidi="normal" text-decoration="none" transform="matrix(1 0 0 1 3507.89 1413)">+</text><text fill="#000000" fill-opacity="1" font-family="Cambria Math,Cambria Math_MSFontService,sans-serif" font-style="normal" font-variant="normal" font-weight="400" font-stretch="normal" font-size="36" text-anchor="start" direction="ltr" writing-mode="lr-tb" unicode-bidi="normal" text-decoration="none" transform="matrix(1 0 0 1 3533.67 1413)">1</text><text fill="#000000" fill-opacity="1" font-family="Cambria Math,Cambria Math_MSFontService,sans-serif" font-style="normal" font-variant="normal" font-weight="400" font-stretch="normal" font-size="36" text-anchor="start" direction="ltr" writing-mode="lr-tb" unicode-bidi="normal" text-decoration="none" transform="matrix(1 0 0 1 3554.3 1413)">]</text><path d="M0.0491651-3.43715 28.7469-3.02665 57.3153-1.82743 85.4314 0.107851 112.873 2.72672 139.417 5.97693 164.841 9.80649 177.09 11.9267 188.951 14.1687 200.422 16.53 211.475 19.0043 222.084 21.5854 232.22 24.2672 241.857 27.0438 250.968 29.9097 259.526 32.8593 267.507 35.8878 274.883 38.9912 281.632 42.1664 287.729 45.4122 293.152 48.7303 297.879 52.1269 301.888 55.6157 305.153 59.2213C305.273 59.355 305.382 59.4978 305.48 59.6486L307.636 62.9816C307.76 63.1741 307.865 63.3786 307.949 63.592L309.263 66.9381C309.365 67.1971 309.435 67.4674 309.471 67.7432L309.916 71.0959 310.36 74.4486 310.152 73.6435 311.466 76.9897 311.153 76.3793 313.309 79.7124 312.982 79.2851 315.952 82.5985 319.412 85.5934 323.672 88.6463 328.701 91.7193 334.466 94.7856 340.931 97.826 348.064 100.826 355.831 103.773 364.201 106.657 373.143 109.469 382.628 112.202 392.625 114.847 403.105 117.396 414.038 119.844 425.397 122.182 437.152 124.404 449.274 126.502 474.53 130.307 500.888 133.534 528.148 136.136 556.081 138.059 584.463 139.25 590.151 139.33 590.053 146.204 584.174 146.119 555.609 144.917 527.494 142.98 500.052 140.358 473.505 137.105 448.101 133.277 435.874 131.159 424.011 128.916 412.536 126.553 401.479 124.076 390.866 121.493 380.724 118.808 371.08 116.027 361.96 113.156 353.39 110.2 345.396 107.162 338.002 104.046 331.231 100.852 325.107 97.58 319.651 94.2227 314.884 90.7667 310.833 87.1872 307.863 83.8738C307.743 83.74 307.634 83.5973 307.536 83.4465L305.38 80.1134C305.256 79.9208 305.151 79.7165 305.067 79.503L303.753 76.1568C303.651 75.8979 303.581 75.6276 303.545 75.3518L303.1 71.9991 302.656 68.6464 302.864 69.4515 301.55 66.1053 301.863 66.7157 299.707 63.3827 300.034 63.81 297.36 60.7889 293.858 57.7033 289.558 54.5911 284.495 51.4789 278.703 48.3861 272.216 45.3276 265.066 42.3151 257.285 39.3588 248.904 36.4677 239.953 33.6499 230.461 30.9134 220.458 28.2654 209.973 25.7132 199.036 23.2637 187.674 20.924 175.917 18.7009 163.817 16.6048 138.581 12.8009 112.219 9.57059 84.959 6.9666 57.0266 5.04151 28.6486 3.84764-0.0491651 3.43715ZM585.716 128.953 613.016 143.095 585.322 156.45Z" fill="#0070C0" fill-rule="nonzero" fill-opacity="1" transform="matrix(1 0 0 -1 2798.5 1555.59)"/><path d="M2798.56 1552.06 2823.74 1552.48 2848.83 1553.71 2873.53 1555.69 2897.63 1558.36 2920.95 1561.69 2943.28 1565.6 2964.44 1570.06 2974.55 1572.48 2984.26 1575.01 2993.59 1577.65 3002.5 1580.39 3010.97 1583.24 3018.98 1586.17 3026.51 1589.19 3033.54 1592.29 3040.03 1595.47 3045.98 1598.73 3051.36 1602.06 3056.14 1605.47 3060.31 1608.95 3063.85 1612.54 3066.73 1616.23C3066.83 1616.37 3066.93 1616.51 3067.01 1616.66L3068.9 1620.06C3069 1620.25 3069.09 1620.44 3069.15 1620.63L3070.31 1624.05C3070.39 1624.28 3070.44 1624.52 3070.47 1624.76L3070.86 1628.19 3071.25 1631.61 3071.09 1630.9 3072.24 1634.32 3071.99 1633.75 3073.88 1637.15 3073.6 1636.72 3076.2 1640.11 3079.23 1643.15 3082.95 1646.25 3087.33 1649.37 3092.37 1652.49 3098.01 1655.58 3104.25 1658.63 3111.04 1661.62 3118.36 1664.56 3126.19 1667.43 3134.49 1670.21 3143.24 1672.91 3152.42 1675.51 3162 1678 3171.95 1680.38 3192.9 1684.8 3215.01 1688.67 3238.11 1691.97 3262.01 1694.62 3286.49 1696.58 3313.62 1697.77 3313.32 1704.64 3285.94 1703.43 3261.25 1701.45 3237.14 1698.77 3213.83 1695.45 3191.48 1691.52 3170.35 1687.07 3160.27 1684.65 3150.55 1682.12 3141.22 1679.48 3132.3 1676.73 3123.82 1673.88 3115.8 1670.94 3108.26 1667.91 3101.22 1664.8 3094.71 1661.6 3088.74 1658.33 3083.34 1654.97 3078.53 1651.52 3074.32 1647.97 3070.76 1644.3 3068.15 1640.92C3068.05 1640.78 3067.95 1640.64 3067.87 1640.49L3065.98 1637.09C3065.88 1636.9 3065.79 1636.71 3065.73 1636.52L3064.57 1633.1C3064.5 1632.87 3064.44 1632.63 3064.42 1632.39L3064.03 1628.96 3063.64 1625.54 3063.79 1626.25 3062.64 1622.83 3062.89 1623.4 3061 1620 3061.28 1620.43 3058.95 1617.35 3055.89 1614.22 3052.15 1611.06 3047.73 1607.9 3042.68 1604.76 3037.01 1601.65 3030.76 1598.58 3023.95 1595.57 3016.62 1592.62 3008.78 1589.75 3000.47 1586.96 2991.71 1584.26 2982.53 1581.66 2972.95 1579.16 2963.02 1576.78 2942.09 1572.37 2919.98 1568.49 2896.87 1565.2 2872.98 1562.54 2848.5 1560.57 2823.62 1559.36 2798.44 1558.94ZM3309.15 1687.37 3336.38 1701.65 3308.62 1714.86Z" fill="#0070C0" fill-rule="nonzero" fill-opacity="1"/><path d="M2812.5 1728.25 3055 1728.25 3055 1711.5 3088.5 1745 3055 1778.5 3055 1761.75 2812.5 1761.75Z" stroke="#0070C0" stroke-width="9.16667" stroke-linecap="butt" stroke-linejoin="miter" stroke-miterlimit="8" stroke-opacity="1" fill="#FFFFFF" fill-rule="evenodd" fill-opacity="1"/><text fill="#000000" fill-opacity="1" font-family="Cambria Math,Cambria Math_MSFontService,sans-serif" font-style="normal" font-variant="normal" font-weight="400" font-stretch="normal" font-size="49" text-anchor="start" direction="ltr" writing-mode="lr-tb" unicode-bidi="normal" text-decoration="none" transform="matrix(1 0 0 1 2818.03 1510)">𝑭𝒂𝒄𝒕𝒐𝒓𝒊𝒛𝒆</text><text fill="#000000" fill-opacity="1" font-family="Cambria Math,Cambria Math_MSFontService,sans-serif" font-style="normal" font-variant="normal" font-weight="400" font-stretch="normal" font-size="49" text-anchor="start" direction="ltr" writing-mode="lr-tb" unicode-bidi="normal" text-decoration="none" transform="matrix(1 0 0 1 4041.7 1376)">𝑳𝒂𝒚𝒆𝒓</text><text fill="#000000" fill-opacity="1" font-family="Cambria Math,Cambria Math_MSFontService,sans-serif" font-style="normal" font-variant="normal" font-weight="400" font-stretch="normal" font-size="49" text-anchor="start" direction="ltr" writing-mode="lr-tb" unicode-bidi="normal" text-decoration="none" transform="matrix(1 0 0 1 4182.07 1376)"> </text><text fill="#000000" fill-opacity="1" font-family="Cambria Math,Cambria Math_MSFontService,sans-serif" font-style="normal" font-variant="normal" font-weight="400" font-stretch="normal" font-size="49" text-anchor="start" direction="ltr" writing-mode="lr-tb" unicode-bidi="normal" text-decoration="none" transform="matrix(1 0 0 1 3950.61 1436)">𝑳𝒊𝒏𝒆𝒂𝒓𝒊𝒛𝒂𝒕𝒊𝒐𝒏</text><text fill="#000000" fill-opacity="1" font-family="Cambria Math,Cambria Math_MSFontService,sans-serif" font-style="normal" font-variant="normal" font-weight="400" font-stretch="normal" font-size="49" text-anchor="start" direction="ltr" writing-mode="lr-tb" unicode-bidi="normal" text-decoration="none" transform="matrix(1 0 0 1 2797.26 1845)">𝑶𝒏𝒆</text><text fill="#000000" fill-opacity="1" font-family="Cambria Math,Cambria Math_MSFontService,sans-serif" font-style="normal" font-variant="normal" font-weight="400" font-stretch="normal" font-size="49" text-anchor="start" direction="ltr" writing-mode="lr-tb" unicode-bidi="normal" text-decoration="none" transform="matrix(1 0 0 1 2902.64 1845)">−</text><text fill="#000000" fill-opacity="1" font-family="Cambria Math,Cambria Math_MSFontService,sans-serif" font-style="normal" font-variant="normal" font-weight="400" font-stretch="normal" font-size="49" text-anchor="start" direction="ltr" writing-mode="lr-tb" unicode-bidi="normal" text-decoration="none" transform="matrix(1 0 0 1 2950.14 1845)">𝒍𝒂𝒚𝒆𝒓</text><text fill="#000000" fill-opacity="1" font-family="Cambria Math,Cambria Math_MSFontService,sans-serif" font-style="normal" font-variant="normal" font-weight="400" font-stretch="normal" font-size="49" text-anchor="start" direction="ltr" writing-mode="lr-tb" unicode-bidi="normal" text-decoration="none" transform="matrix(1 0 0 1 3081.34 1845)"> </text><text fill="#000000" fill-opacity="1" font-family="Cambria Math,Cambria Math_MSFontService,sans-serif" font-style="normal" font-variant="normal" font-weight="400" font-stretch="normal" font-size="49" text-anchor="start" direction="ltr" writing-mode="lr-tb" unicode-bidi="normal" text-decoration="none" transform="matrix(1 0 0 1 2856.23 1905)">𝑳𝒊𝒇𝒕𝒊𝒏𝒈</text></g></g></svg>